<svg width="78" height="78" viewBox="0 0 78 78" fill="none" xmlns="http://www.w3.org/2000/svg">
<path d="M40 31.0355V36.574V37L41.697 36.1479L43.3939 34.2308L45.7273 32.5266L48.9091 29.9704L51.0303 26.9882L55.0606 22.3018L59.0909 18.4675L62.9091 13.355L68 7.17751L67.1515 4.83432L64.6061 1.63905L62.2727 1L54.2121 12.2899L47 21.6627L42.5455 25.497L41.0606 26.9882L40 31.0355Z" fill="#FFDDAC"/>
<path d="M39.4632 39C39.4632 38.9173 39.4634 38.8346 39.4638 38.7519M39.4638 38.7519C39.4647 38.5366 39.4668 38.3211 39.4698 38.1053M39.4638 38.7519C39.2385 39.072 38.7969 38.8527 39.1065 38.5262C39.237 38.3886 39.3549 38.2473 39.4698 38.1053M39.4638 38.7519C39.5332 38.6532 39.5821 38.5032 39.5821 38.2893M39.4698 38.1053C39.4948 36.3183 39.5821 34.516 39.5821 32.7225C39.5821 31.9528 39.7627 31.3342 39.9256 30.6036C40.1054 29.7976 40.1742 29.0038 40.3022 28.1755C40.3307 27.9908 40.5046 27.9661 40.54 27.7544C40.5929 27.4379 40.7903 27.165 40.9165 26.8792C41.4359 25.7033 43.061 24.8841 44.0609 24.1682C44.7606 23.6672 45.4547 23.166 46.1021 22.5955C46.6369 22.1243 46.9445 21.3724 47.4563 20.8518C48.5472 19.742 49.6567 18.5525 50.495 17.2327C51.2926 15.9767 52.328 14.8911 53.0778 13.5938C53.4404 12.9664 53.8886 12.3958 54.2338 11.7711C54.7284 10.8763 55.4327 10.2347 55.9778 9.39561C56.6974 8.28778 57.5673 7.23787 58.3757 6.19105C59.0849 5.2727 59.6472 4.18804 60.4433 3.3484C60.8274 2.9433 61.1095 2.51377 61.4078 2.04551C61.6016 1.74134 61.9099 1.52549 62.0618 1.22299C62.3962 0.556712 64.1857 1.58022 64.4795 1.74282C65.6746 2.4042 66.2855 2.98171 66.8642 4.21698C67.1435 4.81312 67.7626 5.78747 67.7626 6.42136C67.7626 6.68962 68.045 6.96813 67.9938 7.19782C67.9184 7.53577 67.5161 7.88734 67.3134 8.15195C66.9735 8.59553 66.6086 9.05089 66.2961 9.50748C66.027 9.90059 65.6718 10.2055 65.4109 10.5998C64.8746 11.4104 64.1537 12.1586 63.5348 12.916C62.7533 13.8724 62.0162 14.8661 61.2228 15.8113C60.4635 16.716 59.7557 17.629 58.9702 18.5092C58.4988 19.0375 57.9106 19.4425 57.4443 19.9832C56.9978 20.5009 56.6321 21.0246 56.1033 21.4703C55.2211 22.2138 54.0034 23.0846 53.3619 24.0432C52.8735 24.7729 52.2653 25.4058 51.6972 26.0765C51.2682 26.5829 50.9818 27.1663 50.5808 27.6886C49.84 28.6536 49.1373 29.7372 48.2622 30.6431C47.8142 31.1068 47.3364 31.546 46.8948 32.0118C46.5453 32.3804 46.0843 32.561 45.7123 32.8936C44.9868 33.5421 44.016 33.8501 43.2682 34.4597C42.7193 34.907 42.3129 35.6283 41.7488 36.0389C41.2011 36.4376 40.6014 36.866 40.1238 37.3418C39.8773 37.5874 39.6784 37.8476 39.4698 38.1053ZM39.9388 37.1049C39.5028 36.942 40.0841 35.4912 40.2031 35.2098C40.3034 34.9725 40.2619 34.7253 40.388 34.4991C40.612 34.0975 40.5432 33.8136 40.6787 33.3937C40.7741 33.0979 41.0559 32.9375 41.1543 32.604C41.1868 32.494 41.4095 31.9711 41.4846 31.9197C41.9625 31.5924 41.9759 30.7639 42.4887 30.472C42.5249 30.4515 42.5531 30.4236 42.5748 30.3899M42.5748 30.3899C42.6788 30.2286 42.6332 29.9326 42.5909 29.6511M42.5748 30.3899C42.6317 30.5085 42.7217 30.5905 42.8454 30.5905C43.7405 30.5905 43.7438 30.1332 43.7438 29.3534C43.7438 28.872 42.6563 28.6976 42.5614 29.1231C42.532 29.2549 42.5606 29.4492 42.5909 29.6511M42.5748 30.3899C42.4706 30.173 42.4773 29.8337 42.5909 29.6511M42.5909 29.6511C42.639 29.5737 42.7063 29.5245 42.7926 29.5245M60.5094 4.05906C61.488 4.25403 62.2794 5.55074 62.7686 6.33581C63.0439 6.77772 63.2556 8.41647 62.9337 8.91526C62.3419 9.83226 60.4509 9.10497 59.862 8.67837C59.2175 8.21143 59.0079 7.50864 58.2502 7.25704" stroke="#FF5050" stroke-linecap="round"/>
</svg>
