<svg width="78" height="78" viewBox="0 0 78 78" fill="none" xmlns="http://www.w3.org/2000/svg">
<path d="M40 34.355V37.7396V38L41.2121 37.4793L42.4242 36.3077L44.0909 35.2663L46.3636 33.7041L47.8788 31.8817L50.7576 29.0178L53.6364 26.6746L56.3636 23.5503L60 19.7751L59.3939 18.3432L57.5758 16.3905L55.9091 16L50.1515 22.8994L45 28.6272L41.8182 30.9704L40.7576 31.8817L40 34.355Z" fill="#FFDDAC"/>
<path d="M39.3354 39C39.3354 38.95 39.3356 38.8999 39.3358 38.8498M39.3358 38.8498C39.3365 38.7195 39.338 38.5891 39.3402 38.4585M39.3358 38.8498C39.1727 39.0436 38.8529 38.9109 39.0771 38.7132C39.1716 38.6299 39.257 38.5444 39.3402 38.4585M39.3358 38.8498C39.3861 38.7901 39.4215 38.6993 39.4215 38.5699M39.3402 38.4585C39.3583 37.3768 39.4215 36.286 39.4215 35.2004C39.4215 34.7346 39.5523 34.3602 39.6703 33.918C39.8005 33.4301 39.8503 32.9497 39.9429 32.4484C39.9636 32.3365 40.0895 32.3216 40.1152 32.1935C40.1535 32.0019 40.2964 31.8367 40.3878 31.6638C40.7639 30.952 41.9407 30.4561 42.6648 30.0229C43.1715 29.7196 43.6741 29.4163 44.1429 29.071C44.5302 28.7857 44.7529 28.3307 45.1235 28.0155C45.9135 27.3438 46.7169 26.6239 47.3239 25.825C47.9016 25.0648 48.6513 24.4078 49.1943 23.6226C49.4569 23.2428 49.7814 22.8975 50.0314 22.5193C50.3895 21.9778 50.8996 21.5894 51.2943 21.0816C51.8154 20.411 52.4453 19.7756 53.0307 19.142C53.5442 18.5861 53.9515 17.9296 54.5279 17.4214C54.806 17.1762 55.0103 16.9162 55.2263 16.6328C55.3666 16.4487 55.5899 16.3181 55.6999 16.135C55.9421 15.7317 57.2379 16.3512 57.4507 16.4496C58.3161 16.8499 58.7585 17.1995 59.1775 17.9471C59.3798 18.3079 59.8281 18.8977 59.8281 19.2813C59.8281 19.4437 60.0326 19.6123 59.9955 19.7513C59.9409 19.9559 59.6496 20.1687 59.5028 20.3288C59.2567 20.5973 58.9924 20.8729 58.7661 21.1493C58.5713 21.3872 58.3141 21.5717 58.1251 21.8104C57.7368 22.301 57.2148 22.7539 56.7666 23.2123C56.2007 23.7912 55.6669 24.3926 55.0924 24.9647C54.5426 25.5123 54.03 26.0649 53.4612 26.5977C53.1198 26.9175 52.6939 27.1626 52.3562 27.4898C52.0329 27.8032 51.7681 28.1201 51.3851 28.3899C50.7463 28.84 49.8645 29.367 49.4 29.9472C49.0463 30.3888 48.6059 30.7719 48.1945 31.1779C47.8839 31.4844 47.6765 31.8375 47.3861 32.1536C46.8497 32.7377 46.3408 33.3936 45.7071 33.9419C45.3827 34.2226 45.0367 34.4884 44.7169 34.7703C44.4638 34.9934 44.13 35.1027 43.8607 35.304C43.3353 35.6966 42.6323 35.883 42.0908 36.2519C41.6933 36.5226 41.399 36.9592 40.9905 37.2078C40.5939 37.4491 40.1597 37.7084 39.8138 37.9963C39.6353 38.145 39.4913 38.3025 39.3402 38.4585ZM39.6799 37.853C39.3641 37.7544 39.7851 36.8763 39.8712 36.7059C39.9438 36.5623 39.9138 36.4127 40.0051 36.2758C40.1673 36.0327 40.1175 35.8609 40.2156 35.6067C40.2847 35.4277 40.4887 35.3306 40.56 35.1288C40.5836 35.0621 40.7448 34.7457 40.7992 34.7145C41.1453 34.5164 41.155 34.015 41.5263 33.8383C41.5525 33.8259 41.5729 33.809 41.5887 33.7886M41.5887 33.7886C41.6639 33.691 41.6309 33.5118 41.6003 33.3414M41.5887 33.7886C41.6299 33.8604 41.695 33.91 41.7846 33.91C42.4328 33.91 42.4352 33.6333 42.4352 33.1613C42.4352 32.8699 41.6477 32.7643 41.5789 33.0219C41.5576 33.1016 41.5784 33.2193 41.6003 33.3414M41.5887 33.7886C41.5132 33.6573 41.518 33.452 41.6003 33.3414M41.6003 33.3414C41.6352 33.2946 41.6839 33.2648 41.7463 33.2648M54.5758 17.8515C55.2844 17.9695 55.8575 18.7544 56.2117 19.2296C56.4111 19.497 56.5644 20.4889 56.3313 20.7908C55.9028 21.3458 54.5334 20.9056 54.107 20.6474C53.6402 20.3648 53.4885 19.9394 52.9398 19.7872" stroke="#FF5050" stroke-linecap="round"/>
</svg>
