<svg width="256" height="256" viewBox="0 0 256 256" fill="none" xmlns="http://www.w3.org/2000/svg">
<path d="M58.5 193.5L77 200L170.5 214.5L196 53.5L69.5 62.5L58.5 193.5Z" fill="#FF7676"/>
<mask id="path-2-outside-1_14_4" maskUnits="userSpaceOnUse" x="25.2326" y="27" width="197" height="205" fill="black">
<rect fill="white" x="25.2326" y="27" width="197" height="205"/>
<path d="M169.478 194.449L161.365 204.698C160.151 206.261 158.976 206.94 157.585 206.568C157.585 206.568 149.834 203.596 146.032 197.012C140.069 198.495 134.343 198.352 129.243 196.986C113.757 192.836 103.677 177.414 107.678 162.485C110.709 151.172 122.84 137.427 141.2 142.347C145.187 143.415 148.951 145.318 151.966 147.418L160.294 123.014C160.809 121.462 162.542 120.933 164.396 121.429L180.364 126.006C182.96 126.702 183.379 128.106 183.031 129.404L182.956 129.682C182.448 130.838 169.12 168.711 167.405 175.109C165.368 182.713 164.965 188.668 168.32 191.356C169.215 192.093 170.111 192.83 169.888 193.664C169.813 193.942 169.738 194.22 169.478 194.449ZM143.324 180.782C143.793 176.435 144.739 171.421 146.33 165.487C145.807 163.359 143.558 161.365 140.776 160.62C135.212 159.129 130.322 163.285 128.931 168.477C127.539 173.67 129.963 179.09 135.898 180.68C137.938 181.227 140.405 181.292 143.324 180.782Z"/>
<path d="M197.016 81.088C197.016 99.808 178.008 110.272 164.376 110.272C148.728 110.272 135 98.944 135 82.048C135 62.272 149.784 52 166.68 52C187.896 52 197.016 68.608 197.016 81.088ZM166.68 91.936C173.496 91.936 176.568 86.368 176.568 80.896C176.568 79.072 176.184 69.76 166.392 69.76C158.328 69.76 156.024 76.576 156.024 80.896C156.024 87.52 161.208 91.936 166.68 91.936Z"/>
<path d="M69.7731 147.352L50.2957 79.6295C50.015 78.4135 50.6912 77.075 51.9073 76.7943L66.6792 72.4972C71.1762 69.7841 76.5006 67.6681 82.0195 66.394C97.8276 62.7444 115.961 65.7504 125.072 80.8889C128.576 86.6809 130.851 92.2644 132.06 97.5026C138.171 123.974 118.321 143.829 91.7556 149.962C87.4528 150.955 82.9701 151.596 78.401 151.863C77.6095 151.848 76.8395 151.927 76.1632 151.985C72.9036 151.949 70.7808 150.863 69.7731 147.352ZM78.1144 89.1681L89.1128 127.418C89.8827 127.339 90.631 127.166 91.3793 126.994C102.23 124.489 109.417 114.652 106.675 102.772C106.308 101.182 101.938 82.6827 84.6333 86.6778C82.3884 87.1961 80.1363 88.1102 78.1144 89.1681Z"/>
<path fill-rule="evenodd" clip-rule="evenodd" d="M90.6951 165.215C90.342 163.602 88.0451 163.592 87.6779 165.202L87.6597 165.282C87.6472 165.338 87.6355 165.389 87.623 165.442C87.1652 167.392 85.5872 168.882 83.612 169.226C81.931 169.518 81.931 171.931 83.612 172.224C85.5978 172.569 87.182 174.073 87.6302 176.038L87.6779 176.247C88.0451 177.857 90.342 177.847 90.6951 176.234L90.7344 176.055C91.1662 174.082 92.7485 172.567 94.7379 172.221C96.4155 171.929 96.4156 169.521 94.7379 169.229C92.7554 168.884 91.1772 167.378 90.7389 165.415L90.7098 165.282L90.6951 165.215ZM76.2487 170.716C75.9066 170.572 75.5393 170.498 75.1682 170.498C74.7972 170.498 74.4299 170.572 74.0878 170.716C73.747 170.86 73.4381 171.07 73.1792 171.334L73.1765 171.336L70.8249 173.706C70.5653 173.965 70.359 174.272 70.2182 174.61C70.0767 174.949 70.0039 175.313 70.0039 175.681C70.0039 176.049 70.0767 176.413 70.2182 176.753C70.3592 177.091 70.5653 177.398 70.8251 177.656L70.8279 177.659L82.3374 189.243C82.4922 189.399 82.6972 189.494 82.916 189.513L88.4874 189.996C88.7606 190.02 89.0303 189.922 89.2242 189.728C89.4181 189.534 89.5164 189.264 89.4927 188.991L89.0098 183.42C88.9909 183.201 88.895 182.996 88.7392 182.841L77.1548 171.331C76.8965 171.068 76.5886 170.859 76.2487 170.716Z"/>
</mask>
<path d="M169.478 194.449L161.365 204.698C160.151 206.261 158.976 206.94 157.585 206.568C157.585 206.568 149.834 203.596 146.032 197.012C140.069 198.495 134.343 198.352 129.243 196.986C113.757 192.836 103.677 177.414 107.678 162.485C110.709 151.172 122.84 137.427 141.2 142.347C145.187 143.415 148.951 145.318 151.966 147.418L160.294 123.014C160.809 121.462 162.542 120.933 164.396 121.429L180.364 126.006C182.96 126.702 183.379 128.106 183.031 129.404L182.956 129.682C182.448 130.838 169.12 168.711 167.405 175.109C165.368 182.713 164.965 188.668 168.32 191.356C169.215 192.093 170.111 192.83 169.888 193.664C169.813 193.942 169.738 194.22 169.478 194.449ZM143.324 180.782C143.793 176.435 144.739 171.421 146.33 165.487C145.807 163.359 143.558 161.365 140.776 160.62C135.212 159.129 130.322 163.285 128.931 168.477C127.539 173.67 129.963 179.09 135.898 180.68C137.938 181.227 140.405 181.292 143.324 180.782Z" fill="#FFFDD4"/>
<path d="M197.016 81.088C197.016 99.808 178.008 110.272 164.376 110.272C148.728 110.272 135 98.944 135 82.048C135 62.272 149.784 52 166.68 52C187.896 52 197.016 68.608 197.016 81.088ZM166.68 91.936C173.496 91.936 176.568 86.368 176.568 80.896C176.568 79.072 176.184 69.76 166.392 69.76C158.328 69.76 156.024 76.576 156.024 80.896C156.024 87.52 161.208 91.936 166.68 91.936Z" fill="#FFDDAC"/>
<path d="M69.7731 147.352L50.2957 79.6295C50.015 78.4135 50.6912 77.075 51.9073 76.7943L66.6792 72.4972C71.1762 69.7841 76.5006 67.6681 82.0195 66.394C97.8276 62.7444 115.961 65.7504 125.072 80.8889C128.576 86.6809 130.851 92.2644 132.06 97.5026C138.171 123.974 118.321 143.829 91.7556 149.962C87.4528 150.955 82.9701 151.596 78.401 151.863C77.6095 151.848 76.8395 151.927 76.1632 151.985C72.9036 151.949 70.7808 150.863 69.7731 147.352ZM78.1144 89.1681L89.1128 127.418C89.8827 127.339 90.631 127.166 91.3793 126.994C102.23 124.489 109.417 114.652 106.675 102.772C106.308 101.182 101.938 82.6827 84.6333 86.6778C82.3884 87.1961 80.1363 88.1102 78.1144 89.1681Z" fill="#FFFDD4"/>
<path fill-rule="evenodd" clip-rule="evenodd" d="M90.6951 165.215C90.342 163.602 88.0451 163.592 87.6779 165.202L87.6597 165.282C87.6472 165.338 87.6355 165.389 87.623 165.442C87.1652 167.392 85.5872 168.882 83.612 169.226C81.931 169.518 81.931 171.931 83.612 172.224C85.5978 172.569 87.182 174.073 87.6302 176.038L87.6779 176.247C88.0451 177.857 90.342 177.847 90.6951 176.234L90.7344 176.055C91.1662 174.082 92.7485 172.567 94.7379 172.221C96.4155 171.929 96.4156 169.521 94.7379 169.229C92.7554 168.884 91.1772 167.378 90.7389 165.415L90.7098 165.282L90.6951 165.215ZM76.2487 170.716C75.9066 170.572 75.5393 170.498 75.1682 170.498C74.7972 170.498 74.4299 170.572 74.0878 170.716C73.747 170.86 73.4381 171.07 73.1792 171.334L73.1765 171.336L70.8249 173.706C70.5653 173.965 70.359 174.272 70.2182 174.61C70.0767 174.949 70.0039 175.313 70.0039 175.681C70.0039 176.049 70.0767 176.413 70.2182 176.753C70.3592 177.091 70.5653 177.398 70.8251 177.656L70.8279 177.659L82.3374 189.243C82.4922 189.399 82.6972 189.494 82.916 189.513L88.4874 189.996C88.7606 190.02 89.0303 189.922 89.2242 189.728C89.4181 189.534 89.5164 189.264 89.4927 188.991L89.0098 183.42C88.9909 183.201 88.895 182.996 88.7392 182.841L77.1548 171.331C76.8965 171.068 76.5886 170.859 76.2487 170.716Z" fill="#FFDDAC"/>
<path d="M169.478 194.449L152.975 175.67L151.278 177.161L149.876 178.932L169.478 194.449ZM161.365 204.698L141.763 189.182L141.691 189.273L141.62 189.364L161.365 204.698ZM157.585 206.568L148.636 229.911L149.854 230.378L151.114 230.716L157.585 206.568ZM146.032 197.012L167.683 184.512L158.269 168.207L139.998 172.751L146.032 197.012ZM129.243 196.986L135.713 172.838L129.243 196.986ZM107.678 162.485L83.5295 156.014L107.678 162.485ZM141.2 142.347L134.729 166.495L134.729 166.495L141.2 142.347ZM151.966 147.418L137.679 167.933L164.909 186.898L175.627 155.492L151.966 147.418ZM160.294 123.014L183.955 131.088L183.988 130.99L184.021 130.891L160.294 123.014ZM164.396 121.429L171.284 97.3971L171.076 97.3374L170.867 97.2813L164.396 121.429ZM180.364 126.006L173.475 150.038L173.684 150.098L173.893 150.154L180.364 126.006ZM183.031 129.404L158.883 122.934L158.883 122.934L183.031 129.404ZM182.956 129.682L205.84 139.75L206.61 138L207.105 136.153L182.956 129.682ZM167.405 175.109L143.257 168.639L167.405 175.109ZM168.32 191.356L184.203 172.049L184.078 171.947L183.952 171.846L168.32 191.356ZM169.888 193.664L194.036 200.135L169.888 193.664ZM143.324 180.782L147.625 205.409L166.162 202.173L168.18 183.464L143.324 180.782ZM146.33 165.487L170.478 171.957L172.14 165.755L170.607 159.519L146.33 165.487ZM128.931 168.477L153.079 174.948L128.931 168.477ZM135.898 180.68L142.368 156.532L135.898 180.68ZM69.7731 147.352L93.8031 140.455L93.8012 140.449L93.7992 140.442L69.7731 147.352ZM50.2957 79.6295L25.9365 85.2532L26.086 85.9008L26.2697 86.5395L50.2957 79.6295ZM51.9073 76.7943L57.531 101.154L58.2156 100.996L58.8902 100.799L51.9073 76.7943ZM66.6792 72.4972L73.6622 96.5022L76.7978 95.59L79.594 93.903L66.6792 72.4972ZM82.0195 66.394L87.6432 90.7532L82.0195 66.394ZM125.072 80.8889L103.652 93.7802L103.667 93.8058L103.682 93.8313L125.072 80.8889ZM132.06 97.5026L107.701 103.126L132.06 97.5026ZM91.7556 149.962L97.3794 174.321L91.7556 149.962ZM78.401 151.863L77.9488 176.858L78.9039 176.876L79.8575 176.82L78.401 151.863ZM76.1632 151.985L75.8896 176.984L77.0897 176.997L78.2855 176.895L76.1632 151.985ZM78.1144 89.1681L66.524 67.0172L48.4514 76.4737L54.0879 96.0766L78.1144 89.1681ZM89.1128 127.418L65.0863 134.327L70.866 154.428L91.6717 152.287L89.1128 127.418ZM91.3793 126.994L85.7555 102.634L85.7555 102.634L91.3793 126.994ZM106.675 102.772L131.034 97.1483L131.034 97.1483L106.675 102.772ZM84.6333 86.6778L79.0096 62.3186L84.6333 86.6778ZM90.6951 165.215L115.121 159.888L115.119 159.879L115.117 159.869L90.6951 165.215ZM87.6779 165.202L63.3038 159.643L63.3014 159.654L63.2989 159.664L87.6779 165.202ZM87.6597 165.282L63.2807 159.745L63.2786 159.754L87.6597 165.282ZM87.623 165.442L111.961 171.157L111.961 171.155L87.623 165.442ZM83.612 169.226L79.3272 144.596L79.3269 144.596L83.612 169.226ZM83.612 172.224L79.3269 196.854L79.3271 196.854L83.612 172.224ZM87.6302 176.038L63.2562 181.598L63.2565 181.599L87.6302 176.038ZM87.6779 176.247L112.052 170.688L112.052 170.687L87.6779 176.247ZM90.6951 176.234L115.117 181.58L115.117 181.579L90.6951 176.234ZM90.7344 176.055L66.3127 170.709L66.3125 170.71L90.7344 176.055ZM94.7379 172.221L90.4531 147.591L90.4529 147.591L94.7379 172.221ZM94.7379 169.229L90.4529 193.859L90.4531 193.859L94.7379 169.229ZM90.7389 165.415L66.3214 170.78L66.3306 170.822L66.3399 170.864L90.7389 165.415ZM90.7098 165.282L66.2839 170.609L66.288 170.629L66.2922 170.648L90.7098 165.282ZM76.2487 170.716L66.5535 193.76L66.554 193.76L76.2487 170.716ZM74.0878 170.716L64.3925 147.673L64.3888 147.674L74.0878 170.716ZM73.1792 171.334L90.6349 189.231L90.8353 189.035L91.0312 188.835L73.1792 171.334ZM73.1765 171.336L55.7208 153.439L55.574 153.583L55.4295 153.728L73.1765 171.336ZM70.8249 173.706L88.4588 191.428L88.5155 191.371L88.5719 191.315L70.8249 173.706ZM70.2182 174.61L93.2935 184.229L93.2981 184.218L70.2182 174.61ZM70.2182 176.753L93.2948 167.136L93.2933 167.133L70.2182 176.753ZM70.8251 177.656L53.1957 195.382L53.2022 195.389L70.8251 177.656ZM70.8279 177.659L88.5623 160.038L88.5068 159.982L88.4509 159.927L70.8279 177.659ZM82.3374 189.243L100.073 171.623L100.072 171.622L82.3374 189.243ZM82.916 189.513L85.0746 164.607L85.0726 164.607L82.916 189.513ZM88.4874 189.996L90.6546 165.09L90.646 165.09L88.4874 189.996ZM89.2242 189.728L106.901 207.406L106.91 207.397L89.2242 189.728ZM89.4927 188.991L114.399 186.834L114.399 186.832L89.4927 188.991ZM89.0098 183.42L113.916 181.261L113.916 181.261L89.0098 183.42ZM88.7392 182.841L106.366 165.113L106.36 165.107L88.7392 182.841ZM77.1548 171.331L59.3241 188.854L59.4285 188.961L59.5342 189.066L77.1548 171.331ZM149.876 178.932L141.763 189.182L180.967 220.215L189.08 209.965L149.876 178.932ZM141.62 189.364C142.094 188.754 144.153 186.16 148.111 184.125C152.924 181.65 158.657 180.973 164.055 182.419L151.114 230.716C157.904 232.535 164.919 231.704 170.972 228.593C176.169 225.921 179.422 222.206 181.11 220.033L141.62 189.364ZM157.585 206.568C166.533 183.224 166.54 183.227 166.546 183.229C166.549 183.23 166.555 183.232 166.559 183.234C166.568 183.237 166.576 183.241 166.585 183.244C166.602 183.25 166.618 183.257 166.634 183.263C166.666 183.275 166.696 183.287 166.725 183.299C166.783 183.321 166.835 183.342 166.882 183.361C166.975 183.399 167.047 183.429 167.1 183.452C167.205 183.497 167.242 183.515 167.229 183.509C167.182 183.486 167.023 183.404 166.843 183.288C166.189 182.863 166.855 183.078 167.683 184.512L124.382 209.512C129.011 217.53 135.453 222.523 139.625 225.23C141.858 226.679 143.874 227.752 145.4 228.492C146.172 228.867 146.844 229.169 147.388 229.402C147.66 229.519 147.903 229.619 148.111 229.704C148.216 229.746 148.312 229.785 148.399 229.819C148.443 229.836 148.485 229.853 148.524 229.868C148.544 229.876 148.563 229.883 148.582 229.89C148.591 229.894 148.6 229.897 148.609 229.901C148.614 229.903 148.62 229.905 148.623 229.906C148.629 229.909 148.636 229.911 157.585 206.568ZM139.998 172.751C138.095 173.224 136.672 173.094 135.713 172.838L122.772 221.134C132.014 223.61 142.043 223.766 152.067 221.273L139.998 172.751ZM135.713 172.838C134.128 172.413 132.92 171.422 132.268 170.393C131.662 169.437 131.816 168.992 131.826 168.955L83.5295 156.014C75.4616 186.124 95.8715 213.926 122.772 221.134L135.713 172.838ZM131.826 168.955C131.859 168.833 132.041 168.306 132.475 167.648C132.894 167.014 133.317 166.606 133.59 166.403C133.815 166.237 133.827 166.284 133.672 166.316C133.459 166.359 133.721 166.225 134.729 166.495L147.67 118.198C130.618 113.629 115.197 117.788 103.791 126.253C93.1795 134.129 86.3792 145.379 83.5295 156.014L131.826 168.955ZM134.729 166.495C135.063 166.584 135.548 166.754 136.13 167.034C136.709 167.312 137.245 167.631 137.679 167.933L166.254 126.903C161.221 123.398 154.846 120.121 147.67 118.198L134.729 166.495ZM175.627 155.492L183.955 131.088L136.634 114.94L128.306 139.344L175.627 155.492ZM184.021 130.891C181.631 138.088 176.091 142.881 170.36 144.958C165.233 146.816 160.748 146.334 157.926 145.578L170.867 97.2813C166.189 96.0281 159.912 95.5625 153.325 97.9491C146.137 100.554 139.472 106.388 136.568 115.136L184.021 130.891ZM157.508 145.462L173.475 150.038L187.252 101.974L171.284 97.3971L157.508 145.462ZM173.893 150.154C171.872 149.613 165.996 147.572 161.77 140.995C157.248 133.959 157.836 126.839 158.883 122.934L207.179 135.875C208.573 130.671 209.126 122.2 203.833 113.964C198.835 106.186 191.452 103.095 186.834 101.858L173.893 150.154ZM158.883 122.934L158.808 123.212L207.105 136.153L207.179 135.875L158.883 122.934ZM160.073 119.615C159.449 121.033 158.028 125.078 156.982 128.037C155.617 131.898 153.834 136.988 152.012 142.241C148.589 152.114 144.412 164.327 143.257 168.639L191.553 181.58C191.548 181.601 191.561 181.55 191.602 181.409C191.642 181.273 191.697 181.089 191.769 180.852C191.915 180.373 192.108 179.759 192.349 179.006C192.832 177.501 193.458 175.605 194.189 173.424C195.65 169.069 197.462 163.787 199.254 158.619C201.043 153.46 202.793 148.465 204.124 144.7C205.774 140.033 206.209 138.91 205.84 139.75L160.073 119.615ZM143.257 168.639C142.043 173.17 140.701 179.292 140.847 185.652C140.993 191.968 142.801 202.944 152.688 210.866L183.952 171.846C190.483 177.079 190.816 183.734 190.834 184.5C190.847 185.088 190.785 185.151 190.892 184.496C190.992 183.88 191.191 182.931 191.553 181.58L143.257 168.639ZM152.436 210.662C153.463 211.507 151.701 210.192 150.087 208.197C148.37 206.074 142.796 198.18 145.739 187.194L194.036 200.135C197.203 188.314 191.293 179.634 188.959 176.749C187.642 175.121 186.383 173.944 185.696 173.325C185.005 172.704 184.341 172.164 184.203 172.049L152.436 210.662ZM145.739 187.194C145.537 187.948 146.882 181.025 152.975 175.67L185.982 213.228C189.206 210.394 191.245 207.204 192.508 204.427C193.091 203.147 193.464 202.052 193.687 201.342C193.799 200.984 193.884 200.685 193.939 200.49C193.989 200.309 194.032 200.148 194.036 200.135L145.739 187.194ZM168.18 183.464C168.486 180.634 169.153 176.903 170.478 171.957L122.181 159.016C120.326 165.94 119.101 172.237 118.469 178.1L168.18 183.464ZM170.607 159.519C167.263 145.916 155.877 138.784 147.247 136.471L134.306 184.768C132.053 184.164 129.858 183.039 127.891 181.308C126.059 179.698 123.302 176.537 122.052 171.455L170.607 159.519ZM147.247 136.471C124.068 130.261 108.482 148.202 104.783 162.007L153.079 174.948C152.379 177.56 150.771 180.267 147.868 182.351C144.595 184.7 139.578 186.18 134.306 184.768L147.247 136.471ZM104.783 162.007C100.239 178.962 108.634 199.257 129.427 204.829L142.368 156.532C145.804 157.453 149.51 160.007 151.73 164.173C153.797 168.053 153.873 171.982 153.079 174.948L104.783 162.007ZM129.427 204.829C135.834 206.545 142.11 206.372 147.625 205.409L139.024 156.155C138.7 156.211 140.041 155.909 142.368 156.532L129.427 204.829ZM172.016 81.088C172.016 81.3739 171.982 81.3988 171.947 81.4623C171.852 81.6349 171.498 82.1685 170.585 82.8693C169.66 83.5796 168.437 84.2421 167.089 84.7062C165.704 85.1831 164.71 85.272 164.376 85.272V135.272C176.845 135.272 190.327 130.748 201.031 122.531C212.219 113.942 222.016 99.8613 222.016 81.088H172.016ZM164.376 85.272C162.526 85.272 161.293 84.599 160.722 84.0757C160.458 83.8331 160.315 83.6126 160.226 83.4131C160.147 83.2355 160 82.8315 160 82.048H110C110 114.732 136.988 135.272 164.376 135.272V85.272ZM160 82.048C160 80.2616 160.322 79.3839 160.451 79.092C160.574 78.8127 160.698 78.6557 160.889 78.4899C161.344 78.095 163.092 77 166.68 77V27C153.372 27 139.28 31.041 128.119 40.7261C116.486 50.8208 110 65.3959 110 82.048H160ZM166.68 77C168.652 77 169.63 77.3687 169.99 77.533C170.366 77.7046 170.63 77.9111 170.882 78.2024C171.173 78.5396 171.488 79.0491 171.724 79.7094C171.972 80.3999 172.016 80.9295 172.016 81.088H222.016C222.016 69.2873 217.856 56.0992 208.726 45.5256C199.019 34.2835 184.515 27 166.68 27V77ZM166.68 116.936C177.767 116.936 187.518 112.012 193.889 103.848C199.655 96.4588 201.568 87.9141 201.568 80.896H151.568C151.568 79.3499 151.945 76.3252 154.471 73.088C155.825 71.3523 157.725 69.6884 160.148 68.5074C162.583 67.3204 164.901 66.936 166.68 66.936V116.936ZM201.568 80.896C201.568 78.8508 201.487 71.1546 197.365 63.1726C195.108 58.8034 191.404 53.8965 185.56 50.1676C179.621 46.3786 172.962 44.76 166.392 44.76V94.76C164.718 94.76 161.779 94.3054 158.667 92.3194C155.648 90.3935 153.876 87.9286 152.939 86.1154C151.457 83.2454 151.568 81.1172 151.568 80.896H201.568ZM166.392 44.76C154.085 44.76 143.94 50.536 137.76 59.2909C132.451 66.8122 131.024 75.0422 131.024 80.896H181.024C181.024 82.4298 180.749 85.0918 178.608 88.1251C177.377 89.8686 175.515 91.7065 172.962 93.0426C170.385 94.3914 167.999 94.76 166.392 94.76V44.76ZM131.024 80.896C131.024 101.902 147.983 116.936 166.68 116.936V66.936C174.433 66.936 181.024 73.1381 181.024 80.896H131.024ZM93.7992 140.442L74.3218 72.7194L26.2697 86.5395L45.7471 154.262L93.7992 140.442ZM74.655 74.0057C76.8579 83.5477 72.3138 97.7407 57.531 101.154L46.2835 52.435C29.0686 56.4094 23.172 73.2792 25.9365 85.2532L74.655 74.0057ZM58.8902 100.799L73.6622 96.5022L59.6963 48.4922L44.9243 52.7893L58.8902 100.799ZM79.594 93.903C81.6526 92.661 84.4834 91.4827 87.6432 90.7532L76.3957 42.0347C68.5179 43.8534 60.6997 46.9072 53.7645 51.0914L79.594 93.903ZM87.6432 90.7532C92.2849 89.6816 96.3805 89.8307 99.1819 90.6319C101.591 91.3212 102.786 92.342 103.652 93.7802L146.491 67.9975C129.423 39.6376 97.4331 37.1778 76.3957 42.0347L87.6432 90.7532ZM103.682 93.8313C105.992 97.6482 107.159 100.782 107.701 103.126L156.419 91.8788C154.542 83.7467 151.161 75.7136 146.461 67.9464L103.682 93.8313ZM107.701 103.126C108.909 108.359 107.729 112.021 104.942 115.371C101.636 119.346 95.2984 123.486 86.1319 125.602L97.3794 174.321C114.778 170.304 131.648 161.451 143.381 147.347C155.633 132.619 161.323 113.118 156.419 91.8788L107.701 103.126ZM86.1319 125.602C83.233 126.272 80.1455 126.718 76.9444 126.905L79.8575 176.82C85.7946 176.474 91.6727 175.638 97.3794 174.321L86.1319 125.602ZM78.8531 126.867C76.4475 126.823 74.0966 127.071 74.0408 127.075L78.2855 176.895C78.4057 176.885 78.5228 176.874 78.6036 176.867C78.6947 176.859 78.754 176.854 78.8091 176.849C78.9177 176.84 78.9359 176.839 78.912 176.841C78.8844 176.843 78.7815 176.849 78.6255 176.854C78.4687 176.859 78.2379 176.864 77.9488 176.858L78.8531 126.867ZM76.4367 126.987C77.1537 126.994 81.4027 127.087 86.0661 130.221C91.2147 133.68 93.1835 138.296 93.8031 140.455L45.7431 154.248C47.3704 159.918 50.9045 166.834 58.1813 171.723C64.9729 176.286 71.9131 176.94 75.8896 176.984L76.4367 126.987ZM54.0879 96.0766L65.0863 134.327L113.139 120.51L102.141 82.2596L54.0879 96.0766ZM91.6717 152.287C94.2451 152.022 96.5014 151.469 97.0031 151.353L85.7555 102.634C85.5526 102.681 85.4607 102.702 85.3845 102.719C85.3189 102.734 85.3325 102.73 85.394 102.718C85.5094 102.695 85.9351 102.613 86.5538 102.55L91.6717 152.287ZM97.0031 151.353C120.147 146.01 137.144 123.613 131.034 97.1483L82.3154 108.396C82.2842 108.26 82.1983 107.733 82.3373 106.933C82.4752 106.14 82.7911 105.336 83.2604 104.625C84.2179 103.175 85.3573 102.726 85.7555 102.634L97.0031 151.353ZM131.034 97.1483C130.685 95.6375 128.564 86.2192 121.877 77.4599C118.315 72.7951 112.876 67.5411 105.013 64.2363C96.8718 60.8149 87.9501 60.2545 79.0096 62.3186L90.2571 111.037C90.2301 111.043 89.6913 111.161 88.7565 111.094C87.7995 111.026 86.7203 110.785 85.6397 110.331C83.4743 109.421 82.3948 108.142 82.1348 107.801C81.9153 107.514 82.0053 107.558 82.1865 108.027C82.2535 108.201 82.2983 108.344 82.3197 108.418C82.3292 108.451 82.3315 108.461 82.3272 108.444C82.321 108.42 82.314 108.39 82.3154 108.396L131.034 97.1483ZM79.0096 62.3186C74.2058 63.4276 69.9348 65.2325 66.524 67.0172L89.7049 111.319C89.9708 111.18 90.1899 111.083 90.336 111.027C90.4895 110.967 90.4652 110.989 90.2571 111.037L79.0096 62.3186ZM115.117 159.869C109.053 132.168 69.6097 131.995 63.3038 159.643L112.052 170.761C106.481 195.189 71.631 195.036 66.2734 170.561L115.117 159.869ZM63.2989 159.664L63.2807 159.745L112.039 170.82L112.057 170.74L63.2989 159.664ZM63.2786 159.754C63.2777 159.758 63.2768 159.762 63.2761 159.765C63.2753 159.769 63.2746 159.772 63.2739 159.775C63.2726 159.78 63.2717 159.785 63.2709 159.788C63.2692 159.795 63.269 159.797 63.2694 159.795C63.2703 159.79 63.276 159.766 63.2845 159.73L111.961 171.155C112 170.991 112.034 170.838 112.041 170.81L63.2786 159.754ZM63.2849 159.728C65.1161 151.929 71.4268 145.97 79.3272 144.596L87.8968 193.856C99.7477 191.794 109.214 182.856 111.961 171.157L63.2849 159.728ZM79.3269 144.596C50.0261 149.693 50.0261 191.756 79.3269 196.854L87.897 147.594C113.836 152.106 113.836 189.343 87.897 193.856L79.3269 144.596ZM79.3271 196.854C71.3849 195.472 65.0488 189.457 63.2562 181.598L112.004 170.479C109.315 158.689 99.8107 149.666 87.8968 147.594L79.3271 196.854ZM63.2565 181.599L63.3042 181.808L112.052 170.687L112.004 170.478L63.2565 181.599ZM63.3038 181.806C69.6098 209.455 109.053 209.28 115.117 181.58L66.2734 170.888C71.6309 146.414 106.48 146.259 112.052 170.688L63.3038 181.806ZM115.117 181.579L115.156 181.4L66.3125 170.71L66.2732 170.889L115.117 181.579ZM115.156 181.401C113.416 189.35 107.04 195.456 99.023 196.851L90.4529 147.591C78.4572 149.678 68.9164 158.815 66.3127 170.709L115.156 181.401ZM99.0228 196.851C128.32 191.754 128.321 149.696 99.0228 144.599L90.4531 193.859C64.5099 189.346 64.5111 152.104 90.4531 147.591L99.0228 196.851ZM99.023 144.599C107.012 145.989 113.372 152.057 115.138 159.967L66.3399 170.864C68.9828 182.699 78.499 191.779 90.4529 193.859L99.023 144.599ZM115.156 160.05L115.127 159.917L66.2922 170.648L66.3214 170.78L115.156 160.05ZM115.136 159.955L115.121 159.888L66.2692 170.542L66.2839 170.609L115.136 159.955ZM85.944 147.673C82.5341 146.238 78.8707 145.498 75.1682 145.498V195.498C72.2079 195.498 69.2792 194.907 66.5535 193.76L85.944 147.673ZM75.1682 145.498C71.4658 145.498 67.8023 146.238 64.3925 147.673L83.783 193.76C81.0574 194.907 78.1286 195.498 75.1682 195.498V145.498ZM64.3888 147.674C60.9899 149.105 57.9094 151.198 55.3273 153.832L91.0312 188.835C88.9668 190.941 86.5041 192.614 83.7867 193.758L64.3888 147.674ZM55.7236 153.437L55.7208 153.439L90.6321 189.233L90.6349 189.231L55.7236 153.437ZM55.4295 153.728L53.078 156.098L88.5719 191.315L90.9234 188.944L55.4295 153.728ZM53.1911 155.985C50.6065 158.557 48.5466 161.619 47.1383 165.002L93.2981 184.218C92.1714 186.925 90.5241 189.373 88.4588 191.428L53.1911 155.985ZM47.143 164.99C45.73 168.38 45.0039 172.014 45.0039 175.681H95.0039C95.0039 178.613 94.4234 181.519 93.2935 184.229L47.143 164.99ZM45.0039 175.681C45.0039 179.349 45.73 182.983 47.1432 186.372L93.2933 167.133C94.4235 169.844 95.0039 172.749 95.0039 175.681H45.0039ZM47.1417 186.369C48.5452 189.737 50.6005 192.801 53.1957 195.382L88.4546 159.931C90.5302 161.995 92.1732 164.445 93.2948 167.136L47.1417 186.369ZM53.2022 195.389L53.205 195.391L88.4509 159.927L88.4481 159.924L53.2022 195.389ZM53.0935 195.28L64.603 206.864L100.072 171.622L88.5623 160.038L53.0935 195.28ZM64.6017 206.862C68.9265 211.216 74.6524 213.891 80.7594 214.42L85.0726 164.607C90.742 165.098 96.0579 167.582 100.073 171.623L64.6017 206.862ZM80.7574 214.42L86.3288 214.903L90.646 165.09L85.0746 164.607L80.7574 214.42ZM86.3202 214.902C93.9518 215.566 101.485 212.822 106.901 207.406L71.5474 172.049C76.5752 167.022 83.5694 164.474 90.6546 165.09L86.3202 214.902ZM106.91 207.397C112.314 201.988 115.06 194.464 114.399 186.834L64.5859 191.148C63.9724 184.065 66.5218 177.08 71.5381 172.059L106.91 207.397ZM114.399 186.832L113.916 181.261L64.1032 185.578L64.5861 191.15L114.399 186.832ZM113.916 181.261C113.386 175.146 110.706 169.428 106.366 165.113L71.1123 200.569C67.084 196.564 64.5953 191.255 64.1032 185.578L113.916 181.261ZM106.36 165.107L94.7755 153.597L59.5342 189.066L71.1186 200.576L106.36 165.107ZM94.9855 153.808C92.4085 151.186 89.3355 149.1 85.9435 147.673L66.554 193.76C63.8417 192.619 61.3845 190.951 59.3241 188.854L94.9855 153.808Z" fill="#FF7676" mask="url(#path-2-outside-1_14_4)"/>
<mask id="mask0_14_4" style="mask-type:alpha" maskUnits="userSpaceOnUse" x="50" y="52" width="148" height="155">
<path d="M169.478 194.449L161.365 204.698C160.151 206.261 158.976 206.94 157.585 206.568C157.585 206.568 149.834 203.596 146.032 197.012C140.069 198.495 134.343 198.352 129.243 196.986C113.757 192.836 103.677 177.414 107.678 162.485C110.709 151.172 122.84 137.427 141.2 142.347C145.187 143.415 148.951 145.318 151.966 147.418L160.294 123.014C160.809 121.462 162.542 120.933 164.396 121.429L180.364 126.006C182.96 126.702 183.379 128.106 183.031 129.404L182.956 129.682C182.448 130.838 169.12 168.711 167.405 175.109C165.368 182.713 164.965 188.668 168.32 191.356C169.215 192.093 170.111 192.83 169.888 193.664C169.813 193.942 169.738 194.22 169.478 194.449ZM143.324 180.782C143.793 176.435 144.739 171.421 146.33 165.487C145.807 163.359 143.558 161.365 140.776 160.62C135.212 159.129 130.322 163.285 128.931 168.477C127.539 173.67 129.963 179.09 135.898 180.68C137.938 181.227 140.405 181.292 143.324 180.782Z" fill="#FFFDD4"/>
<path d="M197.016 81.088C197.016 99.808 178.008 110.272 164.376 110.272C148.728 110.272 135 98.944 135 82.048C135 62.272 149.784 52 166.68 52C187.896 52 197.016 68.608 197.016 81.088ZM166.68 91.936C173.496 91.936 176.568 86.368 176.568 80.896C176.568 79.072 176.184 69.76 166.392 69.76C158.328 69.76 156.024 76.576 156.024 80.896C156.024 87.52 161.208 91.936 166.68 91.936Z" fill="#FFDDAC"/>
<path d="M69.7731 147.352L50.2957 79.6295C50.015 78.4135 50.6912 77.075 51.9073 76.7943L66.6792 72.4972C71.1762 69.7841 76.5006 67.6681 82.0195 66.394C97.8276 62.7444 115.961 65.7504 125.072 80.8889C128.576 86.6809 130.851 92.2644 132.06 97.5026C138.171 123.974 118.321 143.829 91.7556 149.962C87.4528 150.955 82.9701 151.596 78.401 151.863C77.6095 151.848 76.8395 151.927 76.1632 151.985C72.9036 151.949 70.7808 150.863 69.7731 147.352ZM78.1144 89.1681L89.1128 127.418C89.8827 127.339 90.631 127.166 91.3793 126.994C102.23 124.489 109.417 114.652 106.675 102.772C106.308 101.182 101.938 82.6827 84.6333 86.6778C82.3884 87.1961 80.1363 88.1102 78.1144 89.1681Z" fill="#FFFDD4"/>
</mask>
<g mask="url(#mask0_14_4)">
<path d="M91 118.758C71.5 121.258 37 164.758 37 164.758L54 195.758L160 229.758C160 229.758 179 218.258 179.5 182.758C180 147.258 156.5 137.758 143 126.258C129.5 114.758 110.5 116.258 91 118.758Z" fill="#FFDDAC"/>
<path opacity="0.25" d="M91 109.758C71.5 112.258 37 155.758 37 155.758L54 186.758L160 220.758C160 220.758 179 209.258 179.5 173.758C180 138.258 156.5 128.758 143 117.258C129.5 105.758 110.5 107.258 91 109.758Z" fill="#FFDDAC"/>
<path opacity="0.25" d="M90 95.7584C70.5 98.2584 36 141.758 36 141.758L53 172.758L159 206.758C159 206.758 178 195.258 178.5 159.758C179 124.258 155.5 114.758 142 103.258C128.5 91.7583 109.5 93.2583 90 95.7584Z" fill="#FFDDAC"/>
<path fill-rule="evenodd" clip-rule="evenodd" d="M42.6854 44.1831C43.1835 43.3898 43.9771 42.8255 44.8918 42.6144C45.8064 42.4032 46.7671 42.5625 47.5625 43.0571C48.3263 43.5321 48.8776 44.279 49.1065 45.1441C49.8843 44.7126 50.7984 44.589 51.6649 44.801C52.572 45.0229 53.3528 45.5944 53.8362 46.3901L53.3445 46.687L53.8369 46.3914C54.0749 46.7855 54.2322 47.2228 54.2998 47.678C54.3674 48.1332 54.3439 48.5975 54.2307 49.044C54.1174 49.4905 53.9167 49.9105 53.64 50.2797C53.3909 50.612 53.0847 50.8974 52.7361 51.1226C53.0375 51.4034 53.2868 51.7357 53.4719 52.1042C53.6786 52.5159 53.8011 52.9645 53.8325 53.424C53.8637 53.8836 53.8029 54.3449 53.6539 54.7813C53.5049 55.2172 53.2707 55.6194 52.9648 55.9647C52.349 56.6661 51.4808 57.0977 50.5487 57.1661C49.6583 57.2314 48.7782 56.9602 48.0825 56.4093C47.6986 57.2094 47.0265 57.839 46.1976 58.1707C45.3299 58.5178 44.3604 58.5104 43.4995 58.1501C43.0731 57.9737 42.6862 57.7149 42.3613 57.3884C42.036 57.0615 41.7792 56.6735 41.6058 56.2468C41.4324 55.82 41.346 55.3631 41.3513 54.9024C41.3561 54.4912 41.4341 54.0844 41.5812 53.7007C41.1646 53.6493 40.7605 53.5241 40.388 53.3305C39.9788 53.1179 39.6158 52.8269 39.3198 52.4743C39.0237 52.1217 38.8004 51.7143 38.6625 51.2754C38.5246 50.8366 38.475 50.3748 38.5163 49.9164C38.5577 49.4581 38.6892 49.0122 38.9035 48.6041C39.1177 48.1961 39.4104 47.834 39.765 47.5384C40.1195 47.2428 40.5289 47.0195 40.9697 46.8814C41.371 46.7556 41.7913 46.7026 42.2105 46.7245C42.0405 45.8502 42.2092 44.9416 42.6854 44.1831ZM49.1753 49.9042C49.4866 51.2528 48.6337 52.6013 47.2702 52.9161C45.9066 53.2309 44.5489 52.3928 44.2375 51.0442C43.9262 49.6956 44.7791 48.3471 46.1427 48.0323C47.5062 47.7175 48.8639 48.5556 49.1753 49.9042Z" fill="#FFBE63"/>
<path fill-rule="evenodd" clip-rule="evenodd" d="M62.8396 39.5301C63.3377 38.7368 64.1314 38.1726 65.046 37.9614C65.9606 37.7502 66.9213 37.9095 67.7167 38.4042C68.4805 38.8792 69.0318 39.6261 69.2607 40.4911C70.0385 40.0597 70.9526 39.936 71.8191 40.148C72.7262 40.3699 73.507 40.9415 73.9904 41.7372L73.4988 42.0341L73.9912 41.7384C74.2291 42.1325 74.3864 42.5698 74.454 43.025C74.5216 43.4803 74.4981 43.9445 74.3849 44.391C74.2716 44.8375 74.0709 45.2575 73.7942 45.6267C73.5452 45.959 73.239 46.2444 72.8903 46.4696C73.1917 46.7505 73.441 47.0828 73.6261 47.4512C73.8328 47.8629 73.9554 48.3115 73.9867 48.7711C74.0179 49.2306 73.9572 49.692 73.8081 50.1283C73.6591 50.5642 73.4249 50.9665 73.119 51.3118C72.5032 52.0131 71.6351 52.4448 70.703 52.5132C69.8126 52.5784 68.9324 52.3072 68.2367 51.7563C67.8529 52.5564 67.1807 53.186 66.3518 53.5177C65.4841 53.8649 64.5146 53.8575 63.6537 53.4971C63.2273 53.3208 62.8404 53.0619 62.5155 52.7354C62.1902 52.4086 61.9334 52.0206 61.76 51.5938C61.5867 51.1671 61.5002 50.7101 61.5055 50.2495C61.5103 49.8383 61.5883 49.4314 61.7354 49.0477C61.3189 48.9964 60.9147 48.8711 60.5422 48.6776C60.133 48.4649 59.77 48.174 59.474 47.8214C59.1779 47.4688 58.9546 47.0614 58.8167 46.6225C58.6789 46.1836 58.6292 45.7218 58.6705 45.2635C58.7119 44.8051 58.8434 44.3592 59.0577 43.9512C59.2719 43.5431 59.5647 43.181 59.9192 42.8854C60.2737 42.5898 60.6831 42.3666 61.124 42.2284C61.5253 42.1027 61.9455 42.0497 62.3647 42.0716C62.1947 41.1972 62.3634 40.2887 62.8396 39.5301ZM69.3295 45.2513C69.6409 46.5999 68.7879 47.9483 67.4244 48.2631C66.0609 48.5779 64.7031 47.7399 64.3918 46.3912C64.0804 45.0426 64.9334 43.6941 66.2969 43.3794C67.6604 43.0646 69.0181 43.9026 69.3295 45.2513Z" fill="#FFBE63"/>
<path fill-rule="evenodd" clip-rule="evenodd" d="M47.3185 64.2508C47.8165 63.4575 48.6102 62.8932 49.5248 62.682C50.4394 62.4709 51.4001 62.6302 52.1955 63.1248C52.9593 63.5998 53.5107 64.3467 53.7395 65.2117C54.5173 64.7803 55.4314 64.6566 56.2979 64.8687C57.205 65.0906 57.9859 65.6621 58.4692 66.4578L57.9776 66.7547L58.47 66.459C58.7079 66.8532 58.8652 67.2904 58.9328 67.7457C59.0004 68.2009 58.977 68.6652 58.8637 69.1117C58.7504 69.5582 58.5497 69.9781 58.273 70.3473C58.024 70.6797 57.7178 70.965 57.3691 71.1903C57.6706 71.4711 57.9198 71.8034 58.1049 72.1719C58.3116 72.5836 58.4342 73.0322 58.4655 73.4917C58.4967 73.9513 58.436 74.4126 58.2869 74.849C58.1379 75.2849 57.9037 75.6871 57.5978 76.0324C56.9821 76.7338 56.1139 77.1654 55.1818 77.2338C54.2914 77.2991 53.4112 77.0278 52.7155 76.477C52.3317 77.2771 51.6595 77.9067 50.8306 78.2384C49.9629 78.5855 48.9934 78.5781 48.1325 78.2178C47.7061 78.0414 47.3193 77.7826 46.9943 77.4561C46.669 77.1292 46.4122 76.7412 46.2389 76.3145C46.0655 75.8877 45.979 75.4308 45.9844 74.9701C45.9892 74.5589 46.0671 74.1521 46.2142 73.7684C45.7977 73.717 45.3936 73.5918 45.0211 73.3982C44.6119 73.1856 44.2489 72.8946 43.9528 72.542C43.6567 72.1894 43.4334 71.782 43.2955 71.3431C43.1577 70.9043 43.108 70.4425 43.1493 69.9841C43.1907 69.5258 43.3222 69.0798 43.5365 68.6718C43.7507 68.2638 44.0435 67.9016 44.398 67.6061C44.7525 67.3105 45.1619 67.0872 45.6028 66.9491C46.0041 66.8233 46.4243 66.7703 46.8435 66.7922C46.6735 65.9179 46.8422 65.0093 47.3185 64.2508ZM53.8083 69.9719C54.1197 71.3205 53.2667 72.669 51.9032 72.9838C50.5397 73.2986 49.1819 72.4605 48.8706 71.1119C48.5592 69.7633 49.4122 68.4148 50.7757 68.1C52.1392 67.7852 53.497 68.6233 53.8083 69.9719Z" fill="#FFBE63"/>
<path fill-rule="evenodd" clip-rule="evenodd" d="M67.4726 59.5979C67.9707 58.8046 68.7643 58.2403 69.679 58.0291C70.5936 57.818 71.5543 57.9773 72.3497 58.4719C73.1135 58.9469 73.6648 59.6938 73.8937 60.5588C74.6715 60.1274 75.5856 60.0037 76.4521 60.2158C77.3592 60.4377 78.14 61.0092 78.6234 61.8049L78.1317 62.1018L78.6241 61.8061C78.8621 62.2003 79.0194 62.6375 79.087 63.0928C79.1546 63.548 79.1311 64.0123 79.0179 64.4588C78.9046 64.9053 78.7038 65.3252 78.4271 65.6944C78.1781 66.0268 77.8719 66.3121 77.5233 66.5374C77.8247 66.8182 78.074 67.1505 78.259 67.519C78.4658 67.9307 78.5883 68.3793 78.6197 68.8388C78.6509 69.2984 78.5901 69.7597 78.4411 70.1961C78.2921 70.632 78.0579 71.0342 77.752 71.3795C77.1362 72.0809 76.268 72.5125 75.3359 72.5809C74.4455 72.6462 73.5654 72.3749 72.8697 71.8241C72.4858 72.6242 71.8137 73.2538 70.9848 73.5855C70.117 73.9326 69.1476 73.9252 68.2867 73.5649C67.8603 73.3885 67.4734 73.1297 67.1485 72.8032C66.8231 72.4763 66.5664 72.0883 66.393 71.6616C66.2196 71.2348 66.1331 70.7779 66.1385 70.3172C66.1433 69.906 66.2213 69.4992 66.3683 69.1155C65.9518 69.0641 65.5477 68.9389 65.1752 68.7453C64.766 68.5327 64.403 68.2417 64.1069 67.8891C63.8109 67.5365 63.5875 67.1291 63.4497 66.6902C63.3118 66.2514 63.2622 65.7896 63.3035 65.3312C63.3448 64.8729 63.4764 64.4269 63.6906 64.0189C63.9049 63.6109 64.1976 63.2487 64.5522 62.9532C64.9067 62.6576 65.3161 62.4343 65.7569 62.2962C66.1582 62.1704 66.5785 62.1174 66.9976 62.1393C66.8276 61.265 66.9963 60.3564 67.4726 59.5979ZM73.9625 65.319C74.2738 66.6676 73.4209 68.0161 72.0574 68.3309C70.6938 68.6457 69.3361 67.8076 69.0247 66.459C68.7134 65.1104 69.5663 63.7619 70.9298 63.4471C72.2934 63.1323 73.6511 63.9704 73.9625 65.319Z" fill="#FFBE63"/>
<path fill-rule="evenodd" clip-rule="evenodd" d="M82.9939 34.8771C83.4919 34.0838 84.2856 33.5195 85.2002 33.3084C86.1148 33.0972 87.0755 33.2565 87.8709 33.7511C88.6347 34.2261 89.1861 34.9731 89.4149 35.8381C90.1927 35.4067 91.1068 35.283 91.9733 35.495C92.8804 35.7169 93.6613 36.2885 94.1446 37.0841L93.653 37.381L94.1454 37.0854C94.3833 37.4795 94.5406 37.9168 94.6082 38.372C94.6758 38.8273 94.6523 39.2915 94.5391 39.738C94.4258 40.1845 94.2251 40.6045 93.9484 40.9737C93.6994 41.306 93.3932 41.5914 93.0445 41.8166C93.346 42.0975 93.5952 42.4297 93.7803 42.7982C93.987 43.2099 94.1096 43.6585 94.1409 44.1181C94.1721 44.5776 94.1114 45.0389 93.9623 45.4753C93.8133 45.9112 93.5791 46.3135 93.2732 46.6588C92.6575 47.3601 91.7893 47.7918 90.8572 47.8602C89.9668 47.9254 89.0866 47.6542 88.3909 47.1033C88.0071 47.9034 87.3349 48.533 86.506 48.8647C85.6383 49.2118 84.6688 49.2044 83.8079 48.8441C83.3815 48.6678 82.9947 48.4089 82.6697 48.0824C82.3444 47.7556 82.0876 47.3676 81.9143 46.9408C81.7409 46.514 81.6544 46.0571 81.6598 45.5964C81.6646 45.1852 81.7425 44.7784 81.8896 44.3947C81.4731 44.3434 81.069 44.2181 80.6965 44.0245C80.2873 43.8119 79.9243 43.521 79.6282 43.1683C79.3321 42.8157 79.1088 42.4084 78.9709 41.9695C78.8331 41.5306 78.7834 41.0688 78.8247 40.6104C78.8661 40.1521 78.9976 39.7062 79.2119 39.2982C79.4261 38.8901 79.7189 38.528 80.0734 38.2324C80.4279 37.9368 80.8373 37.7136 81.2782 37.5754C81.6795 37.4496 82.0997 37.3966 82.5189 37.4186C82.3489 36.5442 82.5176 35.6357 82.9939 34.8771ZM89.4837 40.5982C89.7951 41.9469 88.9421 43.2953 87.5786 43.6101C86.2151 43.9249 84.8573 43.0868 84.546 41.7382C84.2346 40.3896 85.0876 39.0411 86.4511 38.7263C87.8146 38.4115 89.1724 39.2496 89.4837 40.5982Z" fill="#FFBE63"/>
<path fill-rule="evenodd" clip-rule="evenodd" d="M103.148 30.2242C103.646 29.4309 104.44 28.8666 105.354 28.6555C106.269 28.4443 107.23 28.6036 108.025 29.0982C108.789 29.5732 109.34 30.3202 109.569 31.1852C110.347 30.7538 111.261 30.6301 112.128 30.8421C113.035 31.064 113.815 31.6356 114.299 32.4312L113.807 32.7281L114.3 32.4325C114.538 32.8266 114.695 33.2639 114.762 33.7191C114.83 34.1744 114.807 34.6386 114.693 35.0851C114.58 35.5316 114.379 35.9516 114.103 36.3208C113.854 36.6531 113.547 36.9385 113.199 37.1637C113.5 37.4446 113.749 37.7768 113.934 38.1453C114.141 38.557 114.264 39.0056 114.295 39.4652C114.326 39.9247 114.266 40.386 114.117 40.8224C113.967 41.2583 113.733 41.6606 113.427 42.0059C112.812 42.7072 111.943 43.1389 111.011 43.2073C110.121 43.2725 109.241 43.0013 108.545 42.4504C108.161 43.2505 107.489 43.8801 106.66 44.2118C105.792 44.5589 104.823 44.5515 103.962 44.1912C103.536 44.0149 103.149 43.756 102.824 43.4295C102.499 43.1027 102.242 42.7147 102.068 42.2879C101.895 41.8611 101.809 41.4042 101.814 40.9435C101.819 40.5323 101.897 40.1255 102.044 39.7418C101.627 39.6905 101.223 39.5652 100.851 39.3716C100.441 39.159 100.078 38.8681 99.7824 38.5154C99.4863 38.1628 99.263 37.7555 99.1251 37.3166C98.9873 36.8777 98.9376 36.4159 98.9789 35.9575C99.0203 35.4992 99.1518 35.0533 99.3661 34.6453C99.5803 34.2372 99.8731 33.8751 100.228 33.5795C100.582 33.2839 100.992 33.0607 101.432 32.9225C101.834 32.7967 102.254 32.7437 102.673 32.7657C102.503 31.8913 102.672 30.9828 103.148 30.2242ZM109.638 35.9453C109.949 37.294 109.096 38.6424 107.733 38.9572C106.369 39.272 105.012 38.4339 104.7 37.0853C104.389 35.7367 105.242 34.3882 106.605 34.0734C107.969 33.7586 109.327 34.5967 109.638 35.9453Z" fill="#FFBE63"/>
<path fill-rule="evenodd" clip-rule="evenodd" d="M87.6268 54.9449C88.1249 54.1516 88.9185 53.5873 89.8332 53.3762C90.7478 53.165 91.7085 53.3243 92.5039 53.8189C93.2677 54.2939 93.819 55.0409 94.0479 55.9059C94.8257 55.4745 95.7398 55.3508 96.6063 55.5628C97.5134 55.7847 98.2942 56.3563 98.7776 57.1519L98.2859 57.4489L98.7783 57.1532C99.0163 57.5473 99.1736 57.9846 99.2412 58.4398C99.3088 58.8951 99.2853 59.3593 99.1721 59.8058C99.0588 60.2523 98.8581 60.6723 98.5814 61.0415C98.3323 61.3738 98.0261 61.6592 97.6775 61.8844C97.9789 62.1653 98.2282 62.4975 98.4133 62.866C98.62 63.2777 98.7425 63.7263 98.7739 64.1859C98.8051 64.6454 98.7443 65.1067 98.5953 65.5431C98.4463 65.979 98.2121 66.3813 97.9062 66.7266C97.2904 67.4279 96.4222 67.8596 95.4901 67.928C94.5997 67.9932 93.7196 67.722 93.0239 67.1711C92.6401 67.9712 91.9679 68.6008 91.139 68.9325C90.2713 69.2796 89.3018 69.2722 88.4409 68.9119C88.0145 68.7356 87.6276 68.4767 87.3027 68.1502C86.9774 67.8234 86.7206 67.4354 86.5472 67.0086C86.3738 66.5818 86.2874 66.1249 86.2927 65.6642C86.2975 65.253 86.3755 64.8462 86.5226 64.4625C86.106 64.4112 85.7019 64.2859 85.3294 64.0924C84.9202 63.8797 84.5572 63.5888 84.2612 63.2361C83.9651 62.8835 83.7418 62.4762 83.6039 62.0373C83.466 61.5984 83.4164 61.1366 83.4577 60.6782C83.4991 60.2199 83.6306 59.774 83.8449 59.366C84.0591 58.9579 84.3518 58.5958 84.7064 58.3002C85.0609 58.0046 85.4703 57.7814 85.9111 57.6432C86.3124 57.5174 86.7327 57.4644 87.1519 57.4864C86.9819 56.612 87.1506 55.7035 87.6268 54.9449ZM94.1167 60.666C94.428 62.0147 93.5751 63.3631 92.2116 63.6779C90.848 63.9927 89.4903 63.1546 89.1789 61.806C88.8676 60.4574 89.7205 59.1089 91.0841 58.7941C92.4476 58.4793 93.8053 59.3174 94.1167 60.666Z" fill="#FFBE63"/>
<path fill-rule="evenodd" clip-rule="evenodd" d="M107.781 50.2919C108.279 49.4986 109.073 48.9343 109.987 48.7232C110.902 48.512 111.863 48.6713 112.658 49.1659C113.422 49.6409 113.973 50.3878 114.202 51.2529C114.98 50.8214 115.894 50.6978 116.761 50.9098C117.668 51.1317 118.448 51.7032 118.932 52.4989L118.44 52.7958L118.933 52.5002C119.171 52.8943 119.328 53.3316 119.395 53.7868C119.463 54.2421 119.44 54.7063 119.326 55.1528C119.213 55.5993 119.012 56.0193 118.736 56.3885C118.487 56.7208 118.18 57.0062 117.832 57.2314C118.133 57.5123 118.382 57.8445 118.567 58.213C118.774 58.6247 118.897 59.0733 118.928 59.5328C118.959 59.9924 118.899 60.4537 118.75 60.8901C118.6 61.326 118.366 61.7282 118.06 62.0735C117.445 62.7749 116.576 63.2065 115.644 63.2749C114.754 63.3402 113.874 63.069 113.178 62.5181C112.794 63.3182 112.122 63.9478 111.293 64.2795C110.425 64.6266 109.456 64.6192 108.595 64.2589C108.169 64.0825 107.782 63.8237 107.457 63.4972C107.132 63.1703 106.875 62.7823 106.701 62.3556C106.528 61.9288 106.442 61.4719 106.447 61.0112C106.452 60.6 106.53 60.1932 106.677 59.8095C106.26 59.7581 105.856 59.6329 105.484 59.4393C105.074 59.2267 104.711 58.9357 104.415 58.5831C104.119 58.2305 103.896 57.8231 103.758 57.3843C103.62 56.9454 103.571 56.4836 103.612 56.0252C103.653 55.5669 103.785 55.121 103.999 54.7129C104.213 54.3049 104.506 53.9428 104.861 53.6472C105.215 53.3516 105.625 53.1283 106.065 52.9902C106.467 52.8644 106.887 52.8114 107.306 52.8333C107.136 51.959 107.305 51.0505 107.781 50.2919ZM114.271 56.013C114.582 57.3616 113.729 58.7101 112.366 59.0249C111.002 59.3397 109.645 58.5016 109.333 57.153C109.022 55.8044 109.875 54.4559 111.238 54.1411C112.602 53.8263 113.96 54.6644 114.271 56.013Z" fill="#FFBE63"/>
<path fill-rule="evenodd" clip-rule="evenodd" d="M51.694 83.2037C52.1921 82.4104 52.9858 81.8461 53.9004 81.635C54.815 81.4238 55.7757 81.5831 56.5711 82.0777C57.3349 82.5527 57.8862 83.2996 58.1151 84.1647C58.8929 83.7333 59.807 83.6096 60.6735 83.8216C61.5806 84.0435 62.3614 84.615 62.8448 85.4107L62.3532 85.7076L62.8456 85.412C63.0835 85.8061 63.2408 86.2434 63.3084 86.6986C63.376 87.1539 63.3525 87.6181 63.2393 88.0646C63.126 88.5111 62.9253 88.9311 62.6486 89.3003C62.3996 89.6326 62.0934 89.918 61.7447 90.1432C62.0461 90.4241 62.2954 90.7563 62.4805 91.1248C62.6872 91.5365 62.8098 91.9851 62.8411 92.4446C62.8723 92.9042 62.8116 93.3655 62.6625 93.8019C62.5135 94.2378 62.2793 94.64 61.9734 94.9853C61.3576 95.6867 60.4895 96.1183 59.5574 96.1868C58.667 96.252 57.7868 95.9808 57.0911 95.4299C56.7073 96.23 56.0351 96.8596 55.2062 97.1913C54.3385 97.5384 53.369 97.531 52.5081 97.1707C52.0817 96.9943 51.6948 96.7355 51.3699 96.409C51.0446 96.0822 50.7878 95.6941 50.6144 95.2674C50.4411 94.8406 50.3546 94.3837 50.3599 93.923C50.3647 93.5118 50.4427 93.105 50.5898 92.7213C50.1733 92.67 49.7691 92.5447 49.3966 92.3511C48.9874 92.1385 48.6244 91.8475 48.3284 91.4949C48.0323 91.1423 47.809 90.7349 47.6711 90.2961C47.5333 89.8572 47.4836 89.3954 47.5249 88.937C47.5663 88.4787 47.6978 88.0328 47.9121 87.6247C48.1263 87.2167 48.4191 86.8546 48.7736 86.559C49.1281 86.2634 49.5375 86.0401 49.9784 85.902C50.3797 85.7762 50.7999 85.7232 51.2191 85.7452C51.0491 84.8708 51.2178 83.9623 51.694 83.2037ZM58.1839 88.9248C58.4953 90.2735 57.6423 91.6219 56.2788 91.9367C54.9153 92.2515 53.5575 91.4134 53.2462 90.0648C52.9348 88.7162 53.7878 87.3677 55.1513 87.0529C56.5148 86.7381 57.8725 87.5762 58.1839 88.9248Z" fill="#FFBE63"/>
<path fill-rule="evenodd" clip-rule="evenodd" d="M71.8483 78.5507C72.3463 77.7574 73.14 77.1932 74.0546 76.982C74.9692 76.7708 75.9299 76.9301 76.7253 77.4248C77.4892 77.8998 78.0405 78.6467 78.2693 79.5117C79.0472 79.0803 79.9613 78.9566 80.8277 79.1686C81.7348 79.3905 82.5157 79.9621 82.999 80.7578L82.5074 81.0547L82.9998 80.759C83.2377 81.1531 83.3951 81.5904 83.4627 82.0456C83.5303 82.5009 83.5068 82.9651 83.3936 83.4116C83.2802 83.8581 83.0795 84.2781 82.8028 84.6473C82.5538 84.9796 82.2476 85.265 81.899 85.4902C82.2004 85.7711 82.4496 86.1034 82.6347 86.4718C82.8414 86.8835 82.964 87.3321 82.9953 87.7917C83.0265 88.2512 82.9658 88.7126 82.8168 89.1489C82.6677 89.5848 82.4335 89.9871 82.1276 90.3324C81.5119 91.0337 80.6437 91.4654 79.7116 91.5338C78.8212 91.599 77.9411 91.3278 77.2453 90.7769C76.8615 91.577 76.1893 92.2066 75.3604 92.5383C74.4927 92.8854 73.5232 92.878 72.6623 92.5177C72.2359 92.3414 71.8491 92.0825 71.5241 91.756C71.1988 91.4292 70.942 91.0412 70.7687 90.6144C70.5953 90.1877 70.5088 89.7307 70.5142 89.2701C70.519 88.8588 70.5969 88.452 70.744 88.0683C70.3275 88.017 69.9234 87.8917 69.5509 87.6982C69.1417 87.4855 68.7787 87.1946 68.4826 86.842C68.1865 86.4893 67.9632 86.082 67.8253 85.6431C67.6875 85.2042 67.6378 84.7424 67.6792 84.2841C67.7205 83.8257 67.8521 83.3798 68.0663 82.9718C68.2806 82.5637 68.5733 82.2016 68.9278 81.906C69.2824 81.6104 69.6917 81.3872 70.1326 81.249C70.5339 81.1233 70.9541 81.0702 71.3733 81.0922C71.2033 80.2178 71.372 79.3093 71.8483 78.5507ZM78.3381 84.2719C78.6495 85.6205 77.7965 86.9689 76.433 87.2837C75.0695 87.5985 73.7117 86.7604 73.4004 85.4118C73.089 84.0632 73.942 82.7147 75.3055 82.3999C76.669 82.0851 78.0268 82.9232 78.3381 84.2719Z" fill="#FFBE63"/>
<path fill-rule="evenodd" clip-rule="evenodd" d="M56.3271 103.271C56.8252 102.478 57.6188 101.914 58.5334 101.703C59.4481 101.491 60.4088 101.651 61.2042 102.145C61.968 102.62 62.5193 103.367 62.7481 104.232C63.526 103.801 64.4401 103.677 65.3066 103.889C66.2137 104.111 66.9945 104.683 67.4779 105.478L66.9862 105.775L67.4786 105.48C67.7166 105.874 67.8739 106.311 67.9415 106.766C68.0091 107.222 67.9856 107.686 67.8724 108.132C67.759 108.579 67.5583 108.999 67.2816 109.368C67.0326 109.7 66.7264 109.986 66.3778 110.211C66.6792 110.492 66.9284 110.824 67.1135 111.192C67.3203 111.604 67.4428 112.053 67.4741 112.512C67.5053 112.972 67.4446 113.433 67.2956 113.87C67.1465 114.305 66.9124 114.708 66.6064 115.053C65.9907 115.754 65.1225 116.186 64.1904 116.254C63.3 116.32 62.4199 116.048 61.7241 115.498C61.3403 116.298 60.6681 116.927 59.8393 117.259C58.9715 117.606 58.002 117.599 57.1411 117.238C56.7148 117.062 56.3279 116.803 56.0029 116.477C55.6776 116.15 55.4208 115.762 55.2475 115.335C55.0741 114.908 54.9876 114.451 54.993 113.991C54.9978 113.579 55.0757 113.173 55.2228 112.789C54.8063 112.738 54.4022 112.612 54.0297 112.419C53.6205 112.206 53.2575 111.915 52.9614 111.563C52.6654 111.21 52.442 110.803 52.3042 110.364C52.1663 109.925 52.1166 109.463 52.158 109.005C52.1993 108.546 52.3309 108.1 52.5451 107.692C52.7594 107.284 53.0521 106.922 53.4066 106.627C53.7612 106.331 54.1705 106.108 54.6114 105.97C55.0127 105.844 55.4329 105.791 55.8521 105.813C55.6821 104.938 55.8508 104.03 56.3271 103.271ZM62.8169 108.993C63.1283 110.341 62.2754 111.69 60.9118 112.004C59.5483 112.319 58.1906 111.481 57.8792 110.132C57.5678 108.784 58.4208 107.435 59.7843 107.121C61.1478 106.806 62.5056 107.644 62.8169 108.993Z" fill="#FFBE63"/>
<path fill-rule="evenodd" clip-rule="evenodd" d="M76.4812 98.6185C76.9793 97.8252 77.773 97.2609 78.6876 97.0497C79.6022 96.8386 80.5629 96.9978 81.3583 97.4925C82.1221 97.9675 82.6734 98.7144 82.9023 99.5794C83.6801 99.148 84.5942 99.0243 85.4607 99.2364C86.3678 99.4583 87.1486 100.03 87.632 100.825L87.1404 101.122L87.6328 100.827C87.8707 101.221 88.028 101.658 88.0956 102.113C88.1632 102.569 88.1397 103.033 88.0265 103.479C87.9132 103.926 87.7125 104.346 87.4358 104.715C87.1868 105.047 86.8806 105.333 86.5319 105.558C86.8333 105.839 87.0826 106.171 87.2677 106.54C87.4744 106.951 87.597 107.4 87.6283 107.859C87.6595 108.319 87.5988 108.78 87.4497 109.217C87.3007 109.653 87.0665 110.055 86.7606 110.4C86.1448 111.101 85.2767 111.533 84.3446 111.602C83.4542 111.667 82.574 111.396 81.8783 110.845C81.4945 111.645 80.8223 112.274 79.9934 112.606C79.1257 112.953 78.1562 112.946 77.2953 112.585C76.8689 112.409 76.482 112.15 76.1571 111.824C75.8318 111.497 75.575 111.109 75.4016 110.682C75.2283 110.255 75.1418 109.798 75.1471 109.338C75.1519 108.927 75.2299 108.52 75.377 108.136C74.9605 108.085 74.5563 107.959 74.1838 107.766C73.7746 107.553 73.4116 107.262 73.1156 106.91C72.8195 106.557 72.5962 106.15 72.4583 105.711C72.3205 105.272 72.2708 104.81 72.3121 104.352C72.3535 103.893 72.485 103.448 72.6993 103.04C72.9135 102.631 73.2063 102.269 73.5608 101.974C73.9153 101.678 74.3247 101.455 74.7656 101.317C75.1669 101.191 75.5871 101.138 76.0063 101.16C75.8363 100.286 76.005 99.377 76.4812 98.6185ZM82.9711 104.34C83.2825 105.688 82.4295 107.037 81.066 107.351C79.7025 107.666 78.3447 106.828 78.0334 105.48C77.722 104.131 78.575 102.782 79.9385 102.468C81.302 102.153 82.6597 102.991 82.9711 104.34Z" fill="#FFBE63"/>
<path fill-rule="evenodd" clip-rule="evenodd" d="M92.0025 73.8977C92.5006 73.1044 93.2942 72.5401 94.2088 72.329C95.1234 72.1178 96.0841 72.2771 96.8795 72.7717C97.6434 73.2467 98.1947 73.9936 98.4235 74.8587C99.2014 74.4273 100.115 74.3036 100.982 74.5156C101.889 74.7375 102.67 75.309 103.153 76.1047L102.662 76.4016L103.154 76.106C103.392 76.5001 103.549 76.9374 103.617 77.3926C103.684 77.8479 103.661 78.3121 103.548 78.7586C103.434 79.2051 103.234 79.6251 102.957 79.9943C102.708 80.3266 102.402 80.612 102.053 80.8372C102.355 81.1181 102.604 81.4503 102.789 81.8188C102.996 82.2305 103.118 82.6791 103.15 83.1386C103.181 83.5982 103.12 84.0595 102.971 84.4959C102.822 84.9318 102.588 85.334 102.282 85.6793C101.666 86.3807 100.798 86.8124 99.8658 86.8808C98.9754 86.946 98.0953 86.6748 97.3995 86.1239C97.0157 86.924 96.3435 87.5536 95.5146 87.8853C94.6469 88.2324 93.6774 88.225 92.8165 87.8647C92.3901 87.6883 92.0033 87.4295 91.6783 87.103C91.353 86.7762 91.0962 86.3881 90.9229 85.9614C90.7495 85.5346 90.663 85.0777 90.6684 84.617C90.6732 84.2058 90.7511 83.799 90.8982 83.4153C90.4817 83.364 90.0776 83.2387 89.7051 83.0451C89.2959 82.8325 88.9329 82.5415 88.6368 82.1889C88.3407 81.8363 88.1174 81.4289 87.9795 80.9901C87.8417 80.5512 87.792 80.0894 87.8334 79.631C87.8747 79.1727 88.0063 78.7268 88.2205 78.3187C88.4348 77.9107 88.7275 77.5486 89.082 77.253C89.4366 76.9574 89.8459 76.7341 90.2868 76.596C90.6881 76.4702 91.1083 76.4172 91.5275 76.4392C91.3575 75.5648 91.5262 74.6563 92.0025 73.8977ZM98.4923 79.6188C98.8037 80.9675 97.9507 82.3159 96.5872 82.6307C95.2237 82.9455 93.8659 82.1074 93.5546 80.7588C93.2432 79.4102 94.0962 78.0617 95.4597 77.7469C96.8232 77.4321 98.181 78.2702 98.4923 79.6188Z" fill="#FFBE63"/>
<path fill-rule="evenodd" clip-rule="evenodd" d="M112.157 69.2448C112.655 68.4515 113.448 67.8872 114.363 67.6761C115.278 67.4649 116.238 67.6242 117.034 68.1188C117.798 68.5938 118.349 69.3407 118.578 70.2058C119.356 69.7744 120.27 69.6507 121.136 69.8627C122.043 70.0846 122.824 70.6562 123.307 71.4518L122.816 71.7487L123.308 71.4531C123.546 71.8472 123.703 72.2845 123.771 72.7397C123.839 73.195 123.815 73.6592 123.702 74.1057C123.589 74.5522 123.388 74.9722 123.111 75.3414C122.862 75.6737 122.556 75.9591 122.207 76.1843C122.509 76.4652 122.758 76.7974 122.943 77.1659C123.15 77.5776 123.272 78.0262 123.304 78.4857C123.335 78.9453 123.274 79.4066 123.125 79.843C122.976 80.2789 122.742 80.6811 122.436 81.0264C121.82 81.7278 120.952 82.1595 120.02 82.2279C119.13 82.2931 118.249 82.0219 117.554 81.471C117.17 82.2711 116.498 82.9007 115.669 83.2324C114.801 83.5795 113.832 83.5721 112.971 83.2118C112.544 83.0354 112.157 82.7766 111.833 82.4501C111.507 82.1233 111.25 81.7352 111.077 81.3085C110.904 80.8817 110.817 80.4248 110.823 79.9641C110.827 79.5529 110.905 79.1461 111.052 78.7624C110.636 78.7111 110.232 78.5858 109.859 78.3922C109.45 78.1796 109.087 77.8887 108.791 77.536C108.495 77.1834 108.272 76.776 108.134 76.3372C107.996 75.8983 107.946 75.4365 107.988 74.9781C108.029 74.5198 108.16 74.0739 108.375 73.6658C108.589 73.2578 108.882 72.8957 109.236 72.6001C109.591 72.3045 110 72.0812 110.441 71.9431C110.842 71.8173 111.263 71.7643 111.682 71.7863C111.512 70.9119 111.68 70.0034 112.157 69.2448ZM118.647 74.9659C118.958 76.3146 118.105 77.663 116.741 77.9778C115.378 78.2926 114.02 77.4545 113.709 76.1059C113.397 74.7573 114.25 73.4088 115.614 73.094C116.977 72.7792 118.335 73.6173 118.647 74.9659Z" fill="#FFBE63"/>
<path fill-rule="evenodd" clip-rule="evenodd" d="M96.6355 93.9655C97.1335 93.1722 97.9272 92.6079 98.8418 92.3968C99.7564 92.1856 100.717 92.3449 101.513 92.8395C102.276 93.3145 102.828 94.0615 103.056 94.9265C103.834 94.4951 104.748 94.3714 105.615 94.5834C106.522 94.8053 107.303 95.3769 107.786 96.1725L107.295 96.4694L107.787 96.1738C108.025 96.5679 108.182 97.0052 108.25 97.4604C108.317 97.9157 108.294 98.3799 108.181 98.8264C108.067 99.2729 107.867 99.6929 107.59 100.062C107.341 100.394 107.035 100.68 106.686 100.905C106.988 101.186 107.237 101.518 107.422 101.887C107.629 102.298 107.751 102.747 107.783 103.206C107.814 103.666 107.753 104.127 107.604 104.564C107.455 105 107.221 105.402 106.915 105.747C106.299 106.449 105.431 106.88 104.499 106.949C103.608 107.014 102.728 106.743 102.033 106.192C101.649 106.992 100.977 107.621 100.148 107.953C99.2799 108.3 98.3104 108.293 97.4495 107.932C97.0231 107.756 96.6363 107.497 96.3113 107.171C95.986 106.844 95.7292 106.456 95.5558 106.029C95.3825 105.602 95.296 105.146 95.3014 104.685C95.3062 104.274 95.3841 103.867 95.5312 103.483C95.1147 103.432 94.7105 103.307 94.3381 103.113C93.9289 102.9 93.5659 102.609 93.2698 102.257C92.9737 101.904 92.7504 101.497 92.6125 101.058C92.4747 100.619 92.425 100.157 92.4663 99.6988C92.5077 99.2405 92.6392 98.7946 92.8535 98.3866C93.0677 97.9785 93.3605 97.6164 93.715 97.3208C94.0695 97.0252 94.4789 96.8019 94.9198 96.6638C95.3211 96.538 95.7413 96.485 96.1605 96.507C95.9905 95.6326 96.1592 94.7241 96.6355 93.9655ZM103.125 99.6866C103.437 101.035 102.584 102.384 101.22 102.699C99.8567 103.013 98.4989 102.175 98.1876 100.827C97.8762 99.478 98.7292 98.1295 100.093 97.8147C101.456 97.4999 102.814 98.338 103.125 99.6866Z" fill="#FFBE63"/>
<path fill-rule="evenodd" clip-rule="evenodd" d="M116.79 89.3125C117.288 88.5192 118.081 87.9549 118.996 87.7438C119.911 87.5326 120.871 87.6919 121.667 88.1865C122.431 88.6615 122.982 89.4084 123.211 90.2734C123.989 89.842 124.903 89.7183 125.769 89.9304C126.676 90.1523 127.457 90.7238 127.94 91.5195L127.449 91.8164L127.941 91.5208C128.179 91.9149 128.336 92.3522 128.404 92.8074C128.472 93.2626 128.448 93.7269 128.335 94.1734C128.222 94.6199 128.021 95.0398 127.744 95.4091C127.495 95.7414 127.189 96.0267 126.84 96.252C127.142 96.5328 127.391 96.8651 127.576 97.2336C127.783 97.6453 127.905 98.0939 127.937 98.5534C127.968 99.013 127.907 99.4743 127.758 99.9107C127.609 100.347 127.375 100.749 127.069 101.094C126.453 101.795 125.585 102.227 124.653 102.296C123.763 102.361 122.882 102.09 122.187 101.539C121.803 102.339 121.131 102.968 120.302 103.3C119.434 103.647 118.465 103.64 117.604 103.279C117.177 103.103 116.79 102.844 116.466 102.518C116.14 102.191 115.883 101.803 115.71 101.376C115.537 100.949 115.45 100.492 115.456 100.032C115.46 99.6206 115.538 99.2138 115.685 98.8301C115.269 98.7787 114.865 98.6535 114.492 98.4599C114.083 98.2473 113.72 97.9563 113.424 97.6037C113.128 97.2511 112.905 96.8437 112.767 96.4048C112.629 95.966 112.579 95.5042 112.621 95.0458C112.662 94.5875 112.793 94.1416 113.008 93.7335C113.222 93.3255 113.515 92.9634 113.869 92.6678C114.224 92.3722 114.633 92.1489 115.074 92.0108C115.475 91.885 115.896 91.832 116.315 91.8539C116.145 90.9796 116.313 90.071 116.79 89.3125ZM123.28 95.0336C123.591 96.3822 122.738 97.7307 121.374 98.0455C120.011 98.3603 118.653 97.5222 118.342 96.1736C118.03 94.825 118.883 93.4765 120.247 93.1617C121.61 92.8469 122.968 93.685 123.28 95.0336Z" fill="#FFBE63"/>
<path fill-rule="evenodd" clip-rule="evenodd" d="M123.302 25.5712C123.8 24.778 124.594 24.2137 125.509 24.0025C126.423 23.7914 127.384 23.9506 128.179 24.4453C128.943 24.9203 129.494 25.6672 129.723 26.5322C130.501 26.1008 131.415 25.9771 132.282 26.1891C133.189 26.4111 133.97 26.9826 134.453 27.7783L133.961 28.0752L134.454 27.7795C134.692 28.1736 134.849 28.6109 134.917 29.0662C134.984 29.5214 134.961 29.9857 134.848 30.4321C134.734 30.8787 134.533 31.2986 134.257 31.6678C134.008 32.0002 133.702 32.2855 133.353 32.5107C133.654 32.7916 133.904 33.1239 134.089 33.4923C134.295 33.9041 134.418 34.3526 134.449 34.8122C134.481 35.2718 134.42 35.7331 134.271 36.1695C134.122 36.6054 133.888 37.0076 133.582 37.3529C132.966 38.0542 132.098 38.4859 131.166 38.5543C130.275 38.6195 129.395 38.3483 128.699 37.7974C128.315 38.5976 127.643 39.2272 126.814 39.5588C125.947 39.906 124.977 39.8986 124.116 39.5382C123.69 39.3619 123.303 39.103 122.978 38.7766C122.653 38.4497 122.396 38.0617 122.223 37.6349C122.049 37.2082 121.963 36.7513 121.968 36.2906C121.973 35.8794 122.051 35.4725 122.198 35.0888C121.781 35.0375 121.377 34.9123 121.005 34.7187C120.596 34.506 120.233 34.2151 119.937 33.8625C119.641 33.5099 119.417 33.1025 119.279 32.6636C119.141 32.2247 119.092 31.7629 119.133 31.3046C119.174 30.8462 119.306 30.4003 119.52 29.9923C119.735 29.5843 120.027 29.2221 120.382 28.9265C120.736 28.6309 121.146 28.4077 121.587 28.2695C121.988 28.1438 122.408 28.0908 122.827 28.1127C122.657 27.2383 122.826 26.3298 123.302 25.5712ZM129.792 31.2924C130.103 32.641 129.251 33.9895 127.887 34.3043C126.523 34.6191 125.166 33.781 124.854 32.4324C124.543 31.0837 125.396 29.7353 126.759 29.4205C128.123 29.1057 129.481 29.9438 129.792 31.2924Z" fill="#FFBE63"/>
<path fill-rule="evenodd" clip-rule="evenodd" d="M143.456 20.9182C143.955 20.1249 144.748 19.5606 145.663 19.3495C146.577 19.1383 147.538 19.2976 148.334 19.7922C149.097 20.2672 149.649 21.0142 149.878 21.8792C150.655 21.4478 151.569 21.3241 152.436 21.5361C153.343 21.758 154.124 22.3296 154.607 23.1252L154.116 23.4221L154.608 23.1265C154.846 23.5206 155.003 23.9579 155.071 24.4131C155.138 24.8684 155.115 25.3326 155.002 25.7791C154.888 26.2256 154.688 26.6456 154.411 27.0148C154.162 27.3471 153.856 27.6325 153.507 27.8577C153.809 28.1386 154.058 28.4708 154.243 28.8393C154.45 29.251 154.572 29.6996 154.604 30.1591C154.635 30.6187 154.574 31.08 154.425 31.5164C154.276 31.9523 154.042 32.3546 153.736 32.6998C153.12 33.4012 152.252 33.8329 151.32 33.9013C150.429 33.9665 149.549 33.6953 148.854 33.1444C148.47 33.9445 147.798 34.5741 146.969 34.9058C146.101 35.2529 145.131 35.2455 144.271 34.8852C143.844 34.7089 143.457 34.45 143.132 34.1235C142.807 33.7967 142.55 33.4087 142.377 32.9819C142.203 32.5551 142.117 32.0982 142.122 31.6375C142.127 31.2263 142.205 30.8195 142.352 30.4358C141.936 30.3845 141.532 30.2592 141.159 30.0656C140.75 29.853 140.387 29.5621 140.091 29.2094C139.795 28.8568 139.571 28.4495 139.434 28.0106C139.296 27.5717 139.246 27.1099 139.287 26.6515C139.329 26.1932 139.46 25.7473 139.674 25.3392C139.889 24.9312 140.181 24.5691 140.536 24.2735C140.891 23.9779 141.3 23.7547 141.741 23.6165C142.142 23.4907 142.562 23.4377 142.981 23.4597C142.812 22.5853 142.98 21.6768 143.456 20.9182ZM149.946 26.6393C150.258 27.988 149.405 29.3364 148.041 29.6512C146.678 29.966 145.32 29.1279 145.009 27.7793C144.697 26.4307 145.55 25.0822 146.914 24.7674C148.277 24.4526 149.635 25.2907 149.946 26.6393Z" fill="#FFBE63"/>
<path fill-rule="evenodd" clip-rule="evenodd" d="M127.935 45.6389C128.433 44.8456 129.227 44.2813 130.142 44.0702C131.056 43.859 132.017 44.0183 132.812 44.5129C133.576 44.9879 134.127 45.7349 134.356 46.5999C135.134 46.1685 136.048 46.0448 136.915 46.2568C137.822 46.4787 138.603 47.0503 139.086 47.8459L138.594 48.1428L139.087 47.8472C139.325 48.2413 139.482 48.6786 139.55 49.1338C139.617 49.5891 139.594 50.0533 139.481 50.4998C139.367 50.9463 139.166 51.3663 138.89 51.7355C138.641 52.0678 138.335 52.3532 137.986 52.5784C138.287 52.8593 138.537 53.1915 138.722 53.56C138.928 53.9717 139.051 54.4203 139.082 54.8799C139.114 55.3394 139.053 55.8007 138.904 56.2371C138.755 56.673 138.521 57.0753 138.215 57.4206C137.599 58.1219 136.731 58.5536 135.799 58.622C134.908 58.6872 134.028 58.416 133.332 57.8651C132.948 58.6652 132.276 59.2948 131.447 59.6265C130.58 59.9736 129.61 59.9662 128.749 59.6059C128.323 59.4296 127.936 59.1707 127.611 58.8442C127.286 58.5174 127.029 58.1294 126.856 57.7026C126.682 57.2758 126.596 56.8189 126.601 56.3582C126.606 55.947 126.684 55.5402 126.831 55.1565C126.414 55.1052 126.01 54.9799 125.638 54.7863C125.229 54.5737 124.866 54.2828 124.57 53.9301C124.274 53.5775 124.05 53.1702 123.912 52.7313C123.774 52.2924 123.725 51.8306 123.766 51.3722C123.807 50.9139 123.939 50.468 124.153 50.06C124.368 49.6519 124.66 49.2898 125.015 48.9942C125.369 48.6986 125.779 48.4754 126.22 48.3372C126.621 48.2114 127.041 48.1584 127.46 48.1804C127.29 47.306 127.459 46.3975 127.935 45.6389ZM134.425 51.36C134.736 52.7087 133.884 54.0571 132.52 54.3719C131.156 54.6867 129.799 53.8486 129.487 52.5C129.176 51.1514 130.029 49.8029 131.392 49.4881C132.756 49.1733 134.114 50.0114 134.425 51.36Z" fill="#FFBE63"/>
<path fill-rule="evenodd" clip-rule="evenodd" d="M148.089 40.986C148.588 40.1927 149.381 39.6284 150.296 39.4173C151.21 39.2061 152.171 39.3654 152.967 39.86C153.73 40.335 154.282 41.082 154.511 41.947C155.288 41.5156 156.202 41.3919 157.069 41.6039C157.976 41.8258 158.757 42.3974 159.24 43.193L158.749 43.4899L159.241 43.1943C159.479 43.5884 159.636 44.0257 159.704 44.4809C159.771 44.9362 159.748 45.4004 159.635 45.8469C159.521 46.2934 159.321 46.7134 159.044 47.0826C158.795 47.4149 158.489 47.7003 158.14 47.9255C158.442 48.2064 158.691 48.5386 158.876 48.9071C159.083 49.3188 159.205 49.7674 159.237 50.227C159.268 50.6865 159.207 51.1478 159.058 51.5842C158.909 52.0201 158.675 52.4224 158.369 52.7677C157.753 53.469 156.885 53.9007 155.953 53.9691C155.062 54.0343 154.182 53.7631 153.487 53.2122C153.103 54.0123 152.431 54.6419 151.602 54.9736C150.734 55.3207 149.764 55.3133 148.904 54.953C148.477 54.7767 148.09 54.5178 147.765 54.1913C147.44 53.8645 147.183 53.4765 147.01 53.0497C146.836 52.6229 146.75 52.166 146.755 51.7053C146.76 51.2941 146.838 50.8873 146.985 50.5036C146.569 50.4523 146.165 50.327 145.792 50.1334C145.383 49.9208 145.02 49.6299 144.724 49.2772C144.428 48.9246 144.204 48.5173 144.067 48.0784C143.929 47.6395 143.879 47.1777 143.92 46.7193C143.962 46.261 144.093 45.8151 144.307 45.4071C144.522 44.999 144.814 44.6369 145.169 44.3413C145.524 44.0457 145.933 43.8225 146.374 43.6843C146.775 43.5585 147.195 43.5055 147.614 43.5275C147.445 42.6531 147.613 41.7446 148.089 40.986ZM154.579 46.7071C154.891 48.0558 154.038 49.4042 152.674 49.719C151.311 50.0338 149.953 49.1957 149.642 47.8471C149.33 46.4985 150.183 45.15 151.547 44.8352C152.91 44.5204 154.268 45.3585 154.579 46.7071Z" fill="#FFBE63"/>
<path fill-rule="evenodd" clip-rule="evenodd" d="M163.611 16.2652C164.109 15.472 164.902 14.9077 165.817 14.6965C166.732 14.4854 167.692 14.6446 168.488 15.1393C169.252 15.6143 169.803 16.3612 170.032 17.2262C170.81 16.7948 171.724 16.6711 172.59 16.8831C173.497 17.105 174.278 17.6766 174.761 18.4723L174.27 18.7692L174.762 18.4735C175 18.8676 175.157 19.3049 175.225 19.7602C175.293 20.2154 175.269 20.6797 175.156 21.1261C175.043 21.5727 174.842 21.9926 174.565 22.3618C174.316 22.6942 174.01 22.9795 173.661 23.2047C173.963 23.4856 174.212 23.8179 174.397 24.1863C174.604 24.598 174.726 25.0466 174.758 25.5062C174.789 25.9658 174.728 26.4271 174.579 26.8634C174.43 27.2993 174.196 27.7016 173.89 28.0469C173.274 28.7482 172.406 29.1799 171.474 29.2483C170.584 29.3135 169.703 29.0423 169.008 28.4914C168.624 29.2916 167.952 29.9212 167.123 30.2528C166.255 30.6 165.286 30.5926 164.425 30.2322C163.998 30.0559 163.611 29.797 163.286 29.4706C162.961 29.1437 162.704 28.7557 162.531 28.3289C162.358 27.9022 162.271 27.4453 162.277 26.9846C162.281 26.5734 162.359 26.1665 162.506 25.7828C162.09 25.7315 161.686 25.6063 161.313 25.4127C160.904 25.2 160.541 24.9091 160.245 24.5565C159.949 24.2039 159.726 23.7965 159.588 23.3576C159.45 22.9187 159.4 22.4569 159.442 21.9986C159.483 21.5402 159.614 21.0943 159.829 20.6863C160.043 20.2783 160.336 19.9161 160.69 19.6205C161.045 19.3249 161.454 19.1017 161.895 18.9635C162.296 18.8378 162.717 18.7848 163.136 18.8067C162.966 17.9323 163.134 17.0238 163.611 16.2652ZM170.101 21.9864C170.412 23.335 169.559 24.6835 168.195 24.9983C166.832 25.313 165.474 24.475 165.163 23.1264C164.851 21.7777 165.704 20.4293 167.068 20.1145C168.431 19.7997 169.789 20.6378 170.101 21.9864Z" fill="#FFBE63"/>
<path fill-rule="evenodd" clip-rule="evenodd" d="M183.765 11.6123C184.263 10.8191 185.057 10.2548 185.971 10.0436C186.886 9.83246 187.847 9.99173 188.642 10.4864C189.406 10.9614 189.957 11.7083 190.186 12.5733C190.964 12.1419 191.878 12.0182 192.744 12.2302C193.651 12.4521 194.432 13.0237 194.916 13.8194L194.424 14.1163L194.916 13.8206C195.154 14.2147 195.312 14.652 195.379 15.1073C195.447 15.5625 195.423 16.0268 195.31 16.4732C195.197 16.9198 194.996 17.3397 194.719 17.7089C194.47 18.0413 194.164 18.3266 193.816 18.5518C194.117 18.8327 194.366 19.165 194.551 19.5334C194.758 19.9452 194.881 20.3937 194.912 20.8533C194.943 21.3129 194.882 21.7742 194.733 22.2105C194.584 22.6464 194.35 23.0487 194.044 23.394C193.428 24.0953 192.56 24.527 191.628 24.5954C190.738 24.6606 189.858 24.3894 189.162 23.8385C188.778 24.6387 188.106 25.2683 187.277 25.5999C186.409 25.9471 185.44 25.9397 184.579 25.5793C184.153 25.403 183.766 25.1441 183.441 24.8177C183.115 24.4908 182.859 24.1028 182.685 23.676C182.512 23.2493 182.425 22.7924 182.431 22.3317C182.436 21.9205 182.514 21.5136 182.661 21.1299C182.244 21.0786 181.84 20.9534 181.467 20.7598C181.058 20.5471 180.695 20.2562 180.399 19.9036C180.103 19.551 179.88 19.1436 179.742 18.7047C179.604 18.2658 179.554 17.804 179.596 17.3457C179.637 16.8873 179.769 16.4414 179.983 16.0334C180.197 15.6254 180.49 15.2632 180.844 14.9676C181.199 14.672 181.608 14.4488 182.049 14.3106C182.45 14.1849 182.871 14.1319 183.29 14.1538C183.12 13.2794 183.289 12.3709 183.765 11.6123ZM190.255 17.3335C190.566 18.6821 189.713 20.0306 188.35 20.3454C186.986 20.6601 185.628 19.8221 185.317 18.4735C185.006 17.1248 185.859 15.7764 187.222 15.4616C188.586 15.1468 189.943 15.9849 190.255 17.3335Z" fill="#FFBE63"/>
<path fill-rule="evenodd" clip-rule="evenodd" d="M168.244 36.333C168.742 35.5398 169.535 34.9755 170.45 34.7643C171.365 34.5532 172.325 34.7124 173.121 35.2071C173.885 35.6821 174.436 36.429 174.665 37.294C175.443 36.8626 176.357 36.7389 177.223 36.951C178.13 37.1729 178.911 37.7444 179.394 38.5401L178.903 38.837L179.395 38.5413C179.633 38.9354 179.79 39.3727 179.858 39.828C179.926 40.2832 179.902 40.7475 179.789 41.1939C179.676 41.6405 179.475 42.0604 179.198 42.4296C178.949 42.762 178.643 43.0473 178.294 43.2725C178.596 43.5534 178.845 43.8857 179.03 44.2541C179.237 44.6659 179.359 45.1144 179.391 45.574C179.422 46.0336 179.361 46.4949 179.212 46.9313C179.063 47.3672 178.829 47.7694 178.523 48.1147C177.907 48.816 177.039 49.2477 176.107 49.3161C175.217 49.3813 174.336 49.1101 173.641 48.5592C173.257 49.3594 172.585 49.989 171.756 50.3207C170.888 50.6678 169.919 50.6604 169.058 50.3C168.631 50.1237 168.244 49.8648 167.919 49.5384C167.594 49.2115 167.337 48.8235 167.164 48.3967C166.991 47.97 166.904 47.5131 166.91 47.0524C166.914 46.6412 166.992 46.2343 167.139 45.8506C166.723 45.7993 166.319 45.6741 165.946 45.4805C165.537 45.2678 165.174 44.9769 164.878 44.6243C164.582 44.2717 164.359 43.8643 164.221 43.4254C164.083 42.9865 164.033 42.5247 164.075 42.0664C164.116 41.608 164.247 41.1621 164.462 40.7541C164.676 40.3461 164.969 39.9839 165.323 39.6883C165.678 39.3927 166.087 39.1695 166.528 39.0313C166.929 38.9056 167.349 38.8526 167.769 38.8745C167.599 38.0001 167.767 37.0916 168.244 36.333ZM174.734 42.0542C175.045 43.4028 174.192 44.7513 172.828 45.0661C171.465 45.3809 170.107 44.5428 169.796 43.1942C169.484 41.8455 170.337 40.4971 171.701 40.1823C173.064 39.8675 174.422 40.7056 174.734 42.0542Z" fill="#FFBE63"/>
<path fill-rule="evenodd" clip-rule="evenodd" d="M188.398 31.68C188.896 30.8867 189.69 30.3225 190.604 30.1113C191.519 29.9001 192.48 30.0594 193.275 30.5541C194.039 31.0291 194.59 31.776 194.819 32.641C195.597 32.2096 196.511 32.0859 197.377 32.2979C198.284 32.5198 199.065 33.0914 199.549 33.8871L199.057 34.184L199.549 33.8883C199.787 34.2824 199.945 34.7197 200.012 35.1749C200.08 35.6302 200.056 36.0944 199.943 36.5409C199.83 36.9874 199.629 37.4074 199.352 37.7766C199.103 38.1089 198.797 38.3943 198.449 38.6195C198.75 38.9004 198.999 39.2327 199.184 39.6011C199.391 40.0128 199.514 40.4614 199.545 40.921C199.576 41.3806 199.515 41.8419 199.366 42.2782C199.217 42.7141 198.983 43.1164 198.677 43.4617C198.061 44.163 197.193 44.5947 196.261 44.6631C195.371 44.7283 194.491 44.4571 193.795 43.9062C193.411 44.7063 192.739 45.3359 191.91 45.6676C191.042 46.0147 190.073 46.0073 189.212 45.647C188.786 45.4707 188.399 45.2118 188.074 44.8853C187.748 44.5585 187.492 44.1705 187.318 43.7437C187.145 43.317 187.058 42.86 187.064 42.3994C187.069 41.9882 187.147 41.5813 187.294 41.1976C186.877 41.1463 186.473 41.021 186.1 40.8275C185.691 40.6148 185.328 40.3239 185.032 39.9713C184.736 39.6187 184.513 39.2113 184.375 38.7724C184.237 38.3335 184.187 37.8717 184.229 37.4134C184.27 36.955 184.402 36.5091 184.616 36.1011C184.83 35.693 185.123 35.3309 185.477 35.0353C185.832 34.7397 186.241 34.5165 186.682 34.3783C187.083 34.2526 187.504 34.1996 187.923 34.2215C187.753 33.3471 187.922 32.4386 188.398 31.68ZM194.888 37.4012C195.199 38.7498 194.346 40.0982 192.983 40.413C191.619 40.7278 190.261 39.8898 189.95 38.5411C189.639 37.1925 190.492 35.844 191.855 35.5293C193.219 35.2145 194.576 36.0525 194.888 37.4012Z" fill="#FFBE63"/>
<path fill-rule="evenodd" clip-rule="evenodd" d="M132.311 64.5918C132.809 63.7986 133.603 63.2343 134.517 63.0231C135.432 62.812 136.393 62.9712 137.188 63.4659C137.952 63.9409 138.503 64.6878 138.732 65.5528C139.51 65.1214 140.424 64.9977 141.29 65.2097C142.197 65.4316 142.978 66.0032 143.462 66.7989L142.97 67.0958L143.462 66.8001C143.7 67.1942 143.858 67.6315 143.925 68.0868C143.993 68.542 143.969 69.0062 143.856 69.4527C143.743 69.8993 143.542 70.3192 143.265 70.6884C143.016 71.0208 142.71 71.3061 142.362 71.5313C142.663 71.8122 142.912 72.1445 143.097 72.5129C143.304 72.9246 143.427 73.3732 143.458 73.8328C143.489 74.2924 143.428 74.7537 143.279 75.19C143.13 75.6259 142.896 76.0282 142.59 76.3735C141.974 77.0748 141.106 77.5065 140.174 77.5749C139.284 77.6401 138.404 77.3689 137.708 76.818C137.324 77.6181 136.652 78.2477 135.823 78.5794C134.955 78.9266 133.986 78.9192 133.125 78.5588C132.699 78.3825 132.312 78.1236 131.987 77.7971C131.661 77.4703 131.405 77.0823 131.231 76.6555C131.058 76.2288 130.971 75.7719 130.977 75.3112C130.982 74.9 131.06 74.4931 131.207 74.1094C130.79 74.0581 130.386 73.9328 130.013 73.7393C129.604 73.5266 129.241 73.2357 128.945 72.8831C128.649 72.5305 128.426 72.1231 128.288 71.6842C128.15 71.2453 128.1 70.7835 128.142 70.3252C128.183 69.8668 128.315 69.4209 128.529 69.0129C128.743 68.6049 129.036 68.2427 129.39 67.9471C129.745 67.6515 130.154 67.4283 130.595 67.2901C130.996 67.1644 131.417 67.1114 131.836 67.1333C131.666 66.2589 131.835 65.3504 132.311 64.5918ZM138.801 70.313C139.112 71.6616 138.259 73.0101 136.896 73.3248C135.532 73.6396 134.174 72.8016 133.863 71.4529C133.552 70.1043 134.405 68.7559 135.768 68.4411C137.132 68.1263 138.489 68.9644 138.801 70.313Z" fill="#FFBE63"/>
<path fill-rule="evenodd" clip-rule="evenodd" d="M152.465 59.9388C152.963 59.1456 153.757 58.5813 154.671 58.3701C155.586 58.159 156.547 58.3182 157.342 58.8129C158.106 59.2879 158.657 60.0348 158.886 60.8998C159.664 60.4684 160.578 60.3447 161.445 60.5567C162.352 60.7786 163.132 61.3502 163.616 62.1459L163.124 62.4428L163.617 62.1471C163.855 62.5412 164.012 62.9785 164.079 63.4338C164.147 63.889 164.124 64.3532 164.01 64.7997C163.897 65.2463 163.696 65.6662 163.42 66.0354C163.171 66.3678 162.864 66.6531 162.516 66.8783C162.817 67.1592 163.066 67.4915 163.252 67.8599C163.458 68.2716 163.581 68.7202 163.612 69.1798C163.643 69.6394 163.583 70.1007 163.434 70.537C163.285 70.9729 163.05 71.3752 162.744 71.7205C162.129 72.4218 161.261 72.8535 160.328 72.9219C159.438 72.9871 158.558 72.7159 157.862 72.165C157.478 72.9651 156.806 73.5947 155.977 73.9264C155.11 74.2736 154.14 74.2662 153.279 73.9058C152.853 73.7295 152.466 73.4706 152.141 73.1441C151.816 72.8173 151.559 72.4293 151.385 72.0025C151.212 71.5758 151.126 71.1189 151.131 70.6582C151.136 70.247 151.214 69.8401 151.361 69.4564C150.944 69.4051 150.54 69.2798 150.168 69.0863C149.758 68.8736 149.395 68.5827 149.099 68.2301C148.803 67.8775 148.58 67.4701 148.442 67.0312C148.304 66.5923 148.255 66.1305 148.296 65.6722C148.337 65.2138 148.469 64.7679 148.683 64.3599C148.897 63.9519 149.19 63.5897 149.545 63.2941C149.899 62.9985 150.309 62.7753 150.749 62.6371C151.151 62.5114 151.571 62.4584 151.99 62.4803C151.82 61.6059 151.989 60.6974 152.465 59.9388ZM158.955 65.66C159.266 67.0086 158.413 68.3571 157.05 68.6718C155.686 68.9866 154.329 68.1486 154.017 66.7999C153.706 65.4513 154.559 64.1029 155.922 63.7881C157.286 63.4733 158.644 64.3114 158.955 65.66Z" fill="#FFBE63"/>
<path fill-rule="evenodd" clip-rule="evenodd" d="M136.944 84.6595C137.442 83.8663 138.236 83.302 139.15 83.0908C140.065 82.8797 141.026 83.0389 141.821 83.5336C142.585 84.0086 143.136 84.7555 143.365 85.6205C144.143 85.1891 145.057 85.0654 145.923 85.2774C146.83 85.4993 147.611 86.0709 148.095 86.8666L147.603 87.1635L148.095 86.8678C148.333 87.2619 148.491 87.6992 148.558 88.1545C148.626 88.6097 148.602 89.0739 148.489 89.5204C148.376 89.967 148.175 90.3869 147.898 90.7561C147.649 91.0885 147.343 91.3738 146.995 91.599C147.296 91.8799 147.545 92.2122 147.73 92.5806C147.937 92.9923 148.06 93.4409 148.091 93.9005C148.122 94.3601 148.061 94.8214 147.912 95.2577C147.763 95.6936 147.529 96.0959 147.223 96.4412C146.607 97.1425 145.739 97.5742 144.807 97.6426C143.917 97.7078 143.037 97.4366 142.341 96.8857C141.957 97.6858 141.285 98.3154 140.456 98.6471C139.588 98.9943 138.619 98.9869 137.758 98.6265C137.332 98.4502 136.945 98.1913 136.62 97.8649C136.294 97.538 136.038 97.15 135.864 96.7232C135.691 96.2965 135.604 95.8396 135.61 95.3789C135.615 94.9677 135.693 94.5608 135.84 94.1771C135.423 94.1258 135.019 94.0005 134.646 93.807C134.237 93.5943 133.874 93.3034 133.578 92.9508C133.282 92.5982 133.059 92.1908 132.921 91.7519C132.783 91.313 132.733 90.8512 132.775 90.3929C132.816 89.9345 132.948 89.4886 133.162 89.0806C133.376 88.6726 133.669 88.3104 134.023 88.0148C134.378 87.7192 134.787 87.496 135.228 87.3578C135.629 87.2321 136.05 87.1791 136.469 87.201C136.299 86.3266 136.468 85.4181 136.944 84.6595ZM143.434 90.3807C143.745 91.7293 142.892 93.0778 141.529 93.3925C140.165 93.7073 138.807 92.8693 138.496 91.5206C138.185 90.172 139.038 88.8236 140.401 88.5088C141.765 88.194 143.122 89.0321 143.434 90.3807Z" fill="#FFBE63"/>
<path fill-rule="evenodd" clip-rule="evenodd" d="M157.098 80.0066C157.596 79.2134 158.39 78.6491 159.304 78.4379C160.219 78.2268 161.18 78.386 161.975 78.8807C162.739 79.3557 163.29 80.1026 163.519 80.9676C164.297 80.5362 165.211 80.4125 166.078 80.6245C166.985 80.8464 167.765 81.418 168.249 82.2137L167.757 82.5106L168.25 82.2149C168.488 82.609 168.645 83.0463 168.712 83.5016C168.78 83.9568 168.757 84.421 168.643 84.8675C168.53 85.3141 168.329 85.734 168.053 86.1032C167.804 86.4356 167.497 86.7209 167.149 86.9461C167.45 87.227 167.699 87.5593 167.885 87.9277C168.091 88.3394 168.214 88.788 168.245 89.2476C168.276 89.7072 168.216 90.1685 168.067 90.6048C167.918 91.0407 167.683 91.443 167.377 91.7883C166.762 92.4896 165.894 92.9213 164.961 92.9897C164.071 93.0549 163.191 92.7837 162.495 92.2328C162.111 93.0329 161.439 93.6625 160.61 93.9942C159.743 94.3414 158.773 94.334 157.912 93.9736C157.486 93.7973 157.099 93.5384 156.774 93.212C156.449 92.8851 156.192 92.4971 156.018 92.0703C155.845 91.6436 155.759 91.1867 155.764 90.726C155.769 90.3148 155.847 89.9079 155.994 89.5242C155.577 89.4729 155.173 89.3476 154.801 89.1541C154.391 88.9414 154.028 88.6505 153.732 88.2979C153.436 87.9453 153.213 87.5379 153.075 87.099C152.937 86.6601 152.888 86.1983 152.929 85.74C152.97 85.2816 153.102 84.8357 153.316 84.4277C153.53 84.0197 153.823 83.6575 154.178 83.3619C154.532 83.0663 154.942 82.8431 155.382 82.7049C155.784 82.5792 156.204 82.5262 156.623 82.5481C156.453 81.6737 156.622 80.7652 157.098 80.0066ZM163.588 85.7278C163.899 87.0764 163.046 88.4249 161.683 88.7396C160.319 89.0544 158.962 88.2164 158.65 86.8677C158.339 85.5191 159.192 84.1707 160.555 83.8559C161.919 83.5411 163.277 84.3792 163.588 85.7278Z" fill="#FFBE63"/>
<path fill-rule="evenodd" clip-rule="evenodd" d="M172.619 55.2859C173.117 54.4926 173.911 53.9283 174.826 53.7172C175.74 53.506 176.701 53.6653 177.496 54.1599C178.26 54.6349 178.811 55.3818 179.04 56.2468C179.818 55.8154 180.732 55.6917 181.599 55.9038C182.506 56.1257 183.287 56.6972 183.77 57.4929L183.278 57.7898L183.771 57.4941C184.009 57.8883 184.166 58.3255 184.234 58.7808C184.301 59.236 184.278 59.7003 184.165 60.1468C184.051 60.5933 183.851 61.0132 183.574 61.3825C183.325 61.7148 183.019 62.0001 182.67 62.2254C182.971 62.5062 183.221 62.8385 183.406 63.207C183.612 63.6187 183.735 64.0673 183.766 64.5268C183.798 64.9864 183.737 65.4477 183.588 65.8841C183.439 66.32 183.205 66.7222 182.899 67.0675C182.283 67.7689 181.415 68.2005 180.483 68.2689C179.592 68.3342 178.712 68.0629 178.016 67.5121C177.633 68.3122 176.96 68.9418 176.131 69.2735C175.264 69.6206 174.294 69.6132 173.433 69.2529C173.007 69.0765 172.62 68.8177 172.295 68.4912C171.97 68.1643 171.713 67.7763 171.54 67.3496C171.366 66.9228 171.28 66.4659 171.285 66.0052C171.29 65.594 171.368 65.1872 171.515 64.8035C171.099 64.7521 170.694 64.6269 170.322 64.4333C169.913 64.2207 169.55 63.9297 169.254 63.5771C168.958 63.2245 168.734 62.8171 168.596 62.3782C168.459 61.9394 168.409 61.4776 168.45 61.0192C168.492 60.5609 168.623 60.1149 168.837 59.7069C169.052 59.2989 169.344 58.9368 169.699 58.6412C170.053 58.3456 170.463 58.1223 170.904 57.9842C171.305 57.8584 171.725 57.8054 172.144 57.8273C171.974 56.953 172.143 56.0444 172.619 55.2859ZM179.109 61.007C179.42 62.3556 178.568 63.7041 177.204 64.0189C175.841 64.3337 174.483 63.4956 174.171 62.147C173.86 60.7984 174.713 59.4499 176.077 59.1351C177.44 58.8203 178.798 59.6584 179.109 61.007Z" fill="#FFBE63"/>
<path fill-rule="evenodd" clip-rule="evenodd" d="M192.773 50.633C193.272 49.8397 194.065 49.2754 194.98 49.0643C195.894 48.8531 196.855 49.0124 197.651 49.507C198.414 49.982 198.966 50.7289 199.195 51.5939C199.972 51.1625 200.886 51.0388 201.753 51.2509C202.66 51.4728 203.441 52.0443 203.924 52.84L203.433 53.1369L203.925 52.8412C204.163 53.2354 204.32 53.6726 204.388 54.1279C204.455 54.5831 204.432 55.0474 204.319 55.4939C204.205 55.9404 204.005 56.3603 203.728 56.7295C203.479 57.0619 203.173 57.3472 202.824 57.5725C203.126 57.8533 203.375 58.1856 203.56 58.5541C203.767 58.9658 203.889 59.4144 203.921 59.8739C203.952 60.3335 203.891 60.7948 203.742 61.2312C203.593 61.6671 203.359 62.0693 203.053 62.4146C202.437 63.116 201.569 63.5476 200.637 63.616C199.746 63.6813 198.866 63.41 198.171 62.8592C197.787 63.6593 197.115 64.2889 196.286 64.6206C195.418 64.9677 194.448 64.9603 193.588 64.6C193.161 64.4236 192.774 64.1648 192.449 63.8383C192.124 63.5114 191.867 63.1234 191.694 62.6967C191.521 62.2699 191.434 61.813 191.439 61.3523C191.444 60.9411 191.522 60.5343 191.669 60.1506C191.253 60.0992 190.849 59.974 190.476 59.7804C190.067 59.5678 189.704 59.2768 189.408 58.9242C189.112 58.5716 188.888 58.1642 188.751 57.7253C188.613 57.2865 188.563 56.8247 188.604 56.3663C188.646 55.908 188.777 55.462 188.992 55.054C189.206 54.646 189.499 54.2839 189.853 53.9883C190.208 53.6927 190.617 53.4694 191.058 53.3313C191.459 53.2055 191.879 53.1525 192.299 53.1744C192.129 52.3001 192.297 51.3915 192.773 50.633ZM199.263 56.3541C199.575 57.7027 198.722 59.0512 197.358 59.366C195.995 59.6808 194.637 58.8427 194.326 57.4941C194.014 56.1455 194.867 54.797 196.231 54.4822C197.594 54.1674 198.952 55.0055 199.263 56.3541Z" fill="#FFBE63"/>
<path fill-rule="evenodd" clip-rule="evenodd" d="M177.252 75.3537C177.75 74.5604 178.544 73.9961 179.459 73.785C180.373 73.5738 181.334 73.7331 182.129 74.2277C182.893 74.7027 183.444 75.4496 183.673 76.3146C184.451 75.8832 185.365 75.7595 186.232 75.9716C187.139 76.1935 187.92 76.765 188.403 77.5607L187.911 77.8576L188.404 77.5619C188.642 77.9561 188.799 78.3933 188.867 78.8486C188.934 79.3038 188.911 79.7681 188.798 80.2146C188.684 80.6611 188.484 81.081 188.207 81.4502C187.958 81.7826 187.652 82.0679 187.303 82.2932C187.604 82.574 187.854 82.9063 188.039 83.2748C188.245 83.6865 188.368 84.1351 188.399 84.5946C188.431 85.0542 188.37 85.5155 188.221 85.9519C188.072 86.3878 187.838 86.79 187.532 87.1353C186.916 87.8367 186.048 88.2683 185.116 88.3367C184.225 88.402 183.345 88.1307 182.649 87.5799C182.266 88.38 181.593 89.0096 180.764 89.3413C179.897 89.6884 178.927 89.681 178.066 89.3207C177.64 89.1443 177.253 88.8855 176.928 88.559C176.603 88.2321 176.346 87.8441 176.173 87.4174C175.999 86.9906 175.913 86.5337 175.918 86.073C175.923 85.6618 176.001 85.255 176.148 84.8713C175.731 84.8199 175.327 84.6947 174.955 84.5011C174.546 84.2885 174.183 83.9975 173.887 83.6449C173.591 83.2923 173.367 82.8849 173.229 82.446C173.092 82.0072 173.042 81.5454 173.083 81.087C173.125 80.6287 173.256 80.1827 173.47 79.7747C173.685 79.3667 173.977 79.0046 174.332 78.709C174.686 78.4134 175.096 78.1901 175.537 78.052C175.938 77.9262 176.358 77.8732 176.777 77.8951C176.607 77.0208 176.776 76.1122 177.252 75.3537ZM183.742 81.0748C184.053 82.4234 183.201 83.7719 181.837 84.0867C180.473 84.4015 179.116 83.5634 178.804 82.2148C178.493 80.8662 179.346 79.5177 180.71 79.2029C182.073 78.8881 183.431 79.7262 183.742 81.0748Z" fill="#FFBE63"/>
<path fill-rule="evenodd" clip-rule="evenodd" d="M197.406 70.7006C197.905 69.9074 198.698 69.3431 199.613 69.1319C200.527 68.9208 201.488 69.08 202.284 69.5747C203.047 70.0497 203.599 70.7966 203.828 71.6616C204.605 71.2302 205.519 71.1065 206.386 71.3186C207.293 71.5405 208.074 72.112 208.557 72.9077L208.066 73.2046L208.558 72.9089C208.796 73.3031 208.953 73.7403 209.021 74.1956C209.088 74.6508 209.065 75.1151 208.952 75.5616C208.838 76.0081 208.638 76.428 208.361 76.7972C208.112 77.1296 207.806 77.4149 207.457 77.6402C207.759 77.921 208.008 78.2533 208.193 78.6217C208.4 79.0335 208.522 79.4821 208.554 79.9416C208.585 80.4012 208.524 80.8625 208.375 81.2989C208.226 81.7348 207.992 82.137 207.686 82.4823C207.07 83.1837 206.202 83.6153 205.27 83.6837C204.379 83.749 203.499 83.4777 202.804 82.9268C202.42 83.727 201.748 84.3566 200.919 84.6883C200.051 85.0354 199.081 85.028 198.221 84.6677C197.794 84.4913 197.407 84.2324 197.082 83.906C196.757 83.5791 196.5 83.1911 196.327 82.7643C196.154 82.3376 196.067 81.8807 196.072 81.42C196.077 81.0088 196.155 80.6019 196.302 80.2182C195.886 80.1669 195.482 80.0417 195.109 79.8481C194.7 79.6354 194.337 79.3445 194.041 78.9919C193.745 78.6393 193.521 78.2319 193.384 77.793C193.246 77.3541 193.196 76.8923 193.237 76.434C193.279 75.9756 193.41 75.5297 193.625 75.1217C193.839 74.7137 194.132 74.3515 194.486 74.0559C194.841 73.7604 195.25 73.5371 195.691 73.399C196.092 73.2732 196.512 73.2202 196.932 73.2421C196.762 72.3677 196.93 71.4592 197.406 70.7006ZM203.896 76.4218C204.208 77.7704 203.355 79.1189 201.991 79.4337C200.628 79.7485 199.27 78.9104 198.959 77.5618C198.647 76.2131 199.5 74.8647 200.864 74.5499C202.227 74.2351 203.585 75.0732 203.896 76.4218Z" fill="#FFBE63"/>
</g>
</svg>
